<?xml version="1.0" standalone="no"?>
<!DOCTYPE svg PUBLIC "-//W3C//DTD SVG 20010904//EN"
 "http://www.w3.org/TR/2001/REC-SVG-20010904/DTD/svg10.dtd">
<svg version="1.0" xmlns="http://www.w3.org/2000/svg"
 width="1147.000000pt" height="1518.000000pt" viewBox="0 0 1147.000000 1518.000000"
 preserveAspectRatio="xMidYMid meet">

<g transform="translate(0.000000,1518.000000) scale(0.100000,-0.100000)"
fill="#000000" stroke="none">
<path d="M5526 14542 c-4 -6 -13 -9 -22 -5 -9 3 -14 0 -12 -8 2 -8 -2 -13 -9
-12 -6 1 -16 -4 -22 -11 -8 -9 -31 -11 -82 -8 -39 2 -81 0 -93 -6 -11 -6 -38
-13 -58 -17 -22 -3 -38 -12 -38 -19 0 -22 -27 -38 -66 -38 -25 0 -44 -7 -59
-23 -18 -17 -38 -23 -94 -27 -66 -5 -75 -8 -108 -42 -20 -20 -46 -36 -58 -36
-12 0 -34 -9 -48 -20 -14 -11 -33 -20 -42 -20 -10 0 -34 -8 -54 -19 -58 -30
-80 -38 -186 -72 -57 -19 -109 -41 -120 -54 -11 -12 -40 -35 -65 -51 -25 -16
-68 -48 -96 -71 -28 -24 -56 -43 -63 -43 -26 0 -118 -55 -158 -95 -24 -24 -43
-45 -43 -48 0 -2 -16 -21 -35 -42 -20 -20 -45 -56 -57 -79 -11 -22 -26 -48
-34 -56 -7 -8 -43 -80 -79 -159 -69 -150 -69 -152 -108 -431 -9 -67 -19 -95
-44 -132 -17 -25 -39 -72 -48 -105 -9 -32 -29 -85 -45 -118 -31 -67 -54 -201
-41 -237 4 -13 9 -40 9 -60 1 -21 8 -48 15 -60 18 -28 34 -123 36 -203 1 -38
6 -64 15 -70 16 -12 26 -70 30 -180 2 -44 9 -93 15 -108 14 -36 14 -150 0
-164 -8 -8 -6 -18 6 -37 12 -17 15 -35 10 -56 -5 -21 -2 -39 9 -55 9 -13 16
-43 16 -65 0 -23 4 -39 9 -36 5 3 12 -2 15 -11 6 -14 10 -12 25 13 25 40 68
74 96 74 13 0 48 -24 86 -60 35 -32 76 -62 91 -65 27 -6 28 -7 26 -83 0 -42
-7 -99 -14 -127 -21 -77 -14 -184 13 -204 9 -7 53 -130 53 -149 0 -19 52 -92
66 -92 11 0 74 -118 74 -139 0 -7 11 -50 24 -95 22 -70 31 -129 27 -173 -1 -7
-18 -24 -38 -37 -36 -25 -36 -25 -8 -23 25 2 29 -2 39 -43 8 -33 16 -46 31
-48 30 -5 68 -67 100 -167 17 -49 33 -91 38 -93 4 -2 7 -9 7 -15 0 -7 21 -50
45 -97 25 -47 53 -101 63 -120 23 -48 49 -83 100 -138 23 -25 42 -54 42 -64 0
-11 7 -18 18 -18 10 0 32 -13 50 -30 18 -16 37 -30 43 -30 14 0 11 -12 -8 -26
-16 -12 -15 -13 12 -14 22 0 26 -3 15 -10 -12 -8 -12 -10 3 -16 22 -8 22 -24
0 -25 -10 0 -5 -5 11 -9 16 -5 32 -8 35 -6 3 2 12 -3 20 -11 11 -12 11 -14 -2
-11 -31 6 -19 -17 14 -27 19 -5 45 -18 59 -27 31 -23 18 -24 -16 -2 -45 30
-39 4 9 -40 26 -23 47 -48 47 -54 0 -7 14 -15 30 -18 17 -4 30 -11 30 -16 0
-5 -9 -6 -20 -3 -34 11 -22 -8 28 -43 26 -18 39 -32 30 -30 -9 2 -17 -1 -18
-5 -2 -13 37 -57 44 -50 3 3 25 -12 48 -34 123 -116 135 -125 189 -129 57 -5
103 -23 59 -24 l-25 0 27 -18 c14 -9 40 -27 57 -40 25 -19 31 -20 31 -7 0 12
4 14 19 5 11 -5 26 -10 33 -10 20 1 -22 23 -57 30 -19 4 -31 13 -34 25 -5 29
-40 55 -72 55 -33 0 -48 17 -24 27 10 3 30 -2 47 -11 16 -10 35 -15 43 -12 8
3 17 1 20 -4 4 -6 13 -10 21 -10 28 0 -10 28 -42 32 -22 2 -29 8 -30 26 -1 13
5 22 13 22 11 0 11 4 3 20 -12 23 -32 27 -24 5 5 -12 -3 -15 -36 -15 -25 0
-39 -4 -35 -10 3 -5 19 -10 36 -10 44 0 35 -15 -11 -16 -22 -1 -40 2 -40 7 0
5 -10 9 -21 9 -31 0 -102 22 -116 36 -7 7 -13 18 -13 25 0 10 3 10 12 1 15
-15 32 -16 23 -2 -12 19 9 10 37 -17 22 -21 31 -24 40 -15 9 9 9 12 -3 12 -8
0 -23 10 -33 21 -18 22 -18 22 10 16 16 -3 38 -9 48 -13 13 -5 17 -4 13 3 -4
6 -27 17 -52 24 -26 8 -52 24 -61 37 -8 12 -27 27 -41 33 -14 5 -23 12 -19 16
11 11 87 -29 82 -44 -4 -8 3 -13 17 -13 12 0 33 -8 47 -17 17 -12 25 -13 28
-5 6 20 48 13 76 -13 26 -24 66 -34 66 -17 0 8 39 6 88 -4 12 -2 22 -12 22
-20 0 -13 3 -14 14 -5 8 7 17 8 20 3 12 -19 -7 -50 -41 -66 -42 -20 -38 -30 9
-21 26 5 37 14 45 36 11 29 36 38 48 18 4 -6 -2 -13 -14 -16 -24 -6 -38 -40
-22 -56 7 -7 18 -7 37 2 15 6 29 9 33 6 8 -9 -21 -25 -49 -26 l-25 -1 24 -7
25 -7 -28 -22 -29 -22 27 0 c15 0 25 4 21 9 -3 5 5 17 17 25 20 14 23 14 31 1
4 -9 3 -24 -5 -37 -17 -30 -18 -58 -3 -58 7 0 15 14 19 30 3 20 12 30 23 30 9
0 28 12 40 28 l23 27 -6 -30 c-4 -16 -11 -35 -15 -41 -17 -22 4 -23 22 -1 30
35 22 10 -12 -39 -17 -25 -28 -48 -25 -51 3 -3 8 2 12 11 8 20 24 21 24 1 0
-24 -30 -76 -39 -70 -5 3 -7 14 -4 25 4 16 2 19 -12 13 -15 -5 -17 -2 -13 15
8 29 4 28 -17 -5 -15 -23 -15 -25 -2 -20 25 9 30 -9 12 -43 -13 -25 -13 -30
-1 -30 7 0 19 7 26 15 14 17 30 20 30 5 0 -5 -7 -10 -15 -10 -19 0 -19 -38 -1
-62 7 -10 20 -18 29 -18 11 0 15 -6 11 -17 -4 -11 -3 -14 3 -7 10 14 53 28 53
17 0 -4 -7 -17 -15 -27 -20 -26 -19 -32 4 -32 11 0 17 4 14 9 -3 5 1 8 8 6 25
-3 39 1 39 11 0 6 -8 10 -17 11 -14 0 -15 2 -3 6 8 3 26 14 39 24 31 24 40 24
34 -1 -3 -11 -12 -19 -21 -18 -8 2 -16 -6 -18 -17 -3 -20 1 -21 61 -17 51 3
65 1 65 -10 0 -8 -5 -19 -11 -25 -17 -17 -1 -37 17 -22 11 9 14 8 14 -8 0 -10
-5 -24 -11 -30 -6 -6 -9 -19 -7 -29 3 -16 7 -14 21 11 l18 30 -6 -39 c-4 -21
-13 -45 -21 -53 -26 -27 -14 -27 14 -1 15 15 34 28 42 30 8 2 23 19 33 38 11
19 25 38 31 42 6 4 12 12 12 18 1 5 2 15 3 21 0 5 6 7 11 4 15 -9 40 14 40 36
0 11 -6 19 -14 19 -28 0 -4 39 30 50 19 7 34 16 34 21 0 5 9 18 20 29 16 16
17 20 5 20 -8 0 -15 4 -15 9 0 5 7 14 15 21 8 7 15 18 15 26 0 7 4 16 10 19 6
3 7 -1 4 -10 -6 -15 11 -45 26 -45 5 0 11 18 15 40 7 43 20 58 29 35 3 -8 1
-17 -4 -20 -6 -4 -10 -21 -9 -38 1 -29 2 -28 16 17 8 27 24 58 34 69 20 22 26
57 9 57 -5 0 -10 5 -10 10 0 6 6 10 13 10 8 0 19 12 26 26 10 23 33 31 32 11
-1 -33 -15 -84 -26 -92 -11 -9 -27 -65 -18 -65 2 0 16 12 31 27 l27 27 3 -22
c2 -13 -2 -30 -8 -38 -9 -10 -9 -14 -1 -14 6 0 11 -7 11 -15 0 -8 5 -15 11
-15 6 0 10 10 9 23 -4 43 0 67 11 67 7 0 8 -11 4 -30 -4 -19 -3 -30 4 -30 6 0
11 8 11 18 1 16 1 16 14 0 16 -22 30 -23 22 -3 -4 10 1 15 14 15 11 0 20 7 20
15 0 8 5 15 10 15 6 0 10 5 10 10 0 17 -25 11 -39 -9 -8 -11 -21 -16 -32 -14
-15 4 -19 15 -19 50 0 36 3 44 15 40 8 -4 17 -2 20 3 4 6 -1 10 -9 10 -9 0
-16 7 -16 15 0 27 -31 16 -41 -15 -6 -16 -17 -30 -25 -30 -19 0 -18 16 1 24 8
3 15 12 15 21 0 8 5 15 12 15 6 0 4 8 -6 19 -10 11 -14 25 -9 37 6 17 8 16 13
-6 4 -17 12 -24 26 -22 12 1 25 -8 36 -28 22 -38 37 -38 45 0 3 17 10 33 14
36 5 3 9 16 9 30 0 14 4 22 10 19 6 -3 10 -15 10 -26 0 -10 4 -19 10 -19 5 0
9 15 8 34 -1 18 6 44 15 57 20 27 20 25 8 -17 -5 -18 -5 -37 0 -45 6 -10 9 -7
9 12 0 28 19 39 68 39 33 0 27 -14 -13 -29 -19 -7 -35 -19 -35 -27 0 -8 -7
-26 -16 -40 -12 -18 -14 -28 -6 -36 17 -17 30 0 38 47 7 51 25 63 19 13 -6
-42 2 -68 21 -68 16 0 18 -23 4 -50 -7 -13 -7 -21 0 -25 6 -4 7 -12 3 -18 -5
-7 -9 -30 -10 -52 -2 -41 -9 -96 -14 -105 -1 -3 -3 -23 -4 -45 0 -22 -4 -50
-9 -63 -6 -18 -3 -24 16 -31 13 -6 17 -10 9 -10 -9 -1 -11 -9 -7 -25 6 -25 -8
-44 -19 -26 -8 12 -25 13 -25 1 0 -5 10 -11 21 -14 15 -4 20 -11 15 -22 -3 -9
-6 -25 -6 -36 0 -16 -5 -18 -25 -13 -20 5 -25 2 -25 -12 0 -16 2 -17 10 -4 8
13 11 12 23 -4 14 -19 15 -19 30 10 12 21 16 24 17 11 0 -11 -10 -32 -21 -49
-19 -26 -23 -28 -31 -14 -13 23 -37 20 -31 -4 3 -11 12 -20 19 -20 18 0 18 -6
-7 -76 -33 -93 -72 -276 -88 -410 -14 -110 -50 -170 -185 -302 -78 -76 -137
-145 -180 -210 -36 -53 -92 -125 -126 -160 -33 -35 -72 -87 -86 -115 -15 -29
-36 -63 -49 -77 -12 -14 -33 -41 -46 -61 -13 -20 -42 -62 -64 -94 -22 -32 -44
-65 -50 -74 -5 -9 -29 -38 -52 -64 -24 -27 -43 -53 -43 -57 0 -16 -32 -19 -47
-4 -12 11 -13 18 -4 27 6 6 11 27 11 46 l0 36 -20 -30 c-13 -19 -20 -24 -20
-14 0 9 -7 22 -15 29 -10 9 -15 9 -15 1 0 -27 -18 -7 -24 27 -4 28 -2 40 11
50 9 6 12 12 5 12 -7 0 -12 7 -12 16 0 9 -9 18 -20 21 -23 6 -26 18 -7 27 9 5
9 7 0 12 -8 3 -11 15 -7 30 8 29 -11 32 -26 4 -13 -24 -33 -26 -50 -5 -11 13
-10 14 4 9 12 -5 15 -2 10 10 -3 8 -11 14 -17 13 -14 -3 -57 73 -57 103 0 22
-19 67 -20 46 0 -5 -7 -3 -15 4 -9 8 -13 21 -9 35 5 20 3 23 -14 19 -14 -4
-22 2 -32 28 -7 18 -27 49 -45 68 -75 82 -146 184 -139 199 18 45 26 89 21
126 -6 40 -58 148 -127 260 -20 33 -54 95 -76 138 -21 43 -51 102 -66 130 -15
29 -27 58 -27 65 -1 12 -28 73 -87 196 -13 28 -24 53 -24 58 0 4 -12 32 -26
61 -14 28 -37 81 -51 117 -13 36 -30 74 -37 85 -7 11 -22 47 -34 80 -11 33
-34 89 -51 125 -32 68 -89 222 -122 325 -25 80 -46 193 -54 289 -11 126 -17
133 -53 57 -17 -35 -36 -85 -43 -112 -10 -39 -23 -57 -58 -87 -25 -20 -59 -44
-75 -52 -89 -46 -204 -206 -305 -426 -52 -111 -94 -147 -261 -224 -225 -103
-382 -180 -498 -243 -170 -93 -247 -135 -332 -180 -41 -22 -93 -52 -115 -67
-93 -64 -224 -121 -375 -164 -262 -75 -425 -133 -622 -220 -70 -31 -135 -56
-144 -56 -47 0 -216 -55 -237 -76 -13 -14 -34 -24 -50 -24 -57 0 -108 -43
-168 -141 -48 -76 -69 -158 -79 -303 -7 -113 -13 -141 -40 -206 -26 -61 -33
-93 -37 -170 -5 -86 -10 -104 -49 -185 -65 -138 -86 -208 -94 -325 -4 -58 -15
-141 -24 -185 -36 -182 -78 -515 -81 -640 -1 -90 -9 -159 -24 -225 -16 -67
-24 -143 -28 -255 -6 -173 2 -265 38 -414 l23 -93 -22 -136 c-36 -219 -40
-318 -37 -1047 1 -663 1 -697 -21 -865 -48 -376 -54 -625 -18 -852 16 -105 16
-110 -5 -195 -92 -382 -171 -859 -171 -1035 l0 -88 2673 0 2673 0 11 42 c14
53 72 122 126 149 54 28 140 28 194 1 52 -27 106 -88 128 -145 l18 -47 2614 0
2613 0 -3 1177 -3 1178 -27 155 c-15 85 -31 173 -37 195 -10 41 -12 90 -3 68
7 -20 23 -15 23 6 0 14 -5 18 -20 14 -15 -4 -20 0 -20 16 0 12 6 21 15 21 8 0
15 -3 15 -7 0 -5 14 -9 30 -10 24 -2 30 2 30 17 0 11 -6 20 -12 21 -7 0 -31 1
-52 2 -44 2 -37 -15 -80 173 -21 95 -21 102 7 98 90 -12 137 -12 137 2 0 12
-67 20 -157 17 -14 -1 -37 62 -29 76 4 5 2 12 -4 16 -5 3 -10 17 -10 31 0 19
4 24 18 22 9 -2 16 -10 14 -18 -2 -8 0 -34 3 -59 l6 -46 78 0 c72 0 79 2 79
20 0 19 -7 20 -72 20 l-71 0 -3 29 c-3 25 -1 28 11 18 12 -10 16 -9 21 3 3 8
13 15 23 14 16 0 16 -2 -2 -10 -14 -6 -10 -7 15 -2 19 4 45 6 58 6 12 0 22 3
22 7 0 12 -103 18 -118 7 -7 -6 -16 -7 -19 -3 -4 4 -1 11 6 15 10 6 10 10 1
16 -6 4 -10 17 -9 28 1 12 -4 37 -11 54 -10 27 -17 33 -41 33 -16 0 -29 -5
-29 -11 0 -6 9 -9 19 -6 15 3 20 -2 24 -22 2 -14 8 -34 12 -43 5 -13 1 -20
-16 -27 -13 -5 -25 -7 -27 -6 -2 2 -10 32 -18 66 -8 35 -16 74 -19 87 -5 21
-2 22 45 22 32 0 49 4 45 10 -3 5 0 11 7 12 25 3 53 5 103 8 l50 2 -55 9 c-33
5 -83 4 -124 -3 -74 -11 -88 -5 -79 33 5 19 6 19 19 2 11 -15 15 -16 23 -4 10
16 0 53 -17 59 -6 2 -12 -5 -15 -15 -3 -10 -5 45 -5 122 -1 96 2 133 9 117 5
-13 6 -35 3 -48 -4 -17 -2 -24 9 -24 8 0 17 -7 21 -15 4 -10 -1 -15 -14 -15
-13 0 -20 -7 -20 -20 0 -19 7 -20 98 -20 53 0 107 -3 120 -6 19 -5 22 -2 22
19 0 16 -7 27 -17 30 -16 4 -16 5 -1 6 15 1 17 20 18 190 l0 189 -24 -2 c-13
0 -24 -5 -23 -10 1 -6 -7 -11 -18 -13 -16 -3 -17 -2 -6 6 12 8 12 12 2 25 -10
12 -31 16 -76 16 -97 0 -125 8 -125 36 0 23 3 24 73 24 77 0 117 7 117 20 0 8
-71 18 -162 23 -35 2 -38 4 -38 32 0 18 3 25 8 18 6 -9 19 -9 52 -2 24 6 58 9
75 8 62 -4 145 1 145 9 0 5 -34 7 -75 5 -53 -2 -84 1 -105 12 -16 8 -47 15
-68 15 -37 0 -52 11 -52 40 0 15 59 4 80 -15 19 -17 21 -17 39 -1 16 15 30 17
70 11 28 -4 64 -4 81 0 26 6 30 11 30 39 0 26 -5 34 -27 43 l-28 10 28 8 c18
5 27 14 27 27 0 18 -4 19 -37 12 -76 -16 -153 0 -153 31 0 15 40 20 143 17 35
-1 47 2 47 13 0 9 -11 16 -27 16 -47 3 -57 5 -98 17 -22 6 -66 13 -97 14 -35
2 -60 8 -62 16 -4 9 18 13 87 14 102 2 153 4 180 6 9 1 17 10 17 20 0 26 -54
40 -175 47 -54 3 -100 7 -101 8 -1 1 -4 34 -8 72 -4 46 -3 63 3 50 5 -11 10
-15 10 -9 1 14 198 11 213 -4 19 -19 6 -22 -88 -26 -49 -2 -97 -4 -106 -5 -34
-2 -18 -21 22 -27 24 -4 40 -12 40 -20 0 -12 6 -12 37 1 21 9 40 21 44 27 4 6
11 8 17 4 6 -4 29 -4 51 0 l41 7 0 188 c0 170 -2 188 -17 192 -17 4 -17 5 0 6
10 1 17 9 17 21 0 16 -7 20 -35 20 -21 0 -38 6 -41 14 -4 10 -22 14 -64 13
-32 -1 -56 1 -54 4 8 13 -27 47 -56 52 -19 4 -30 13 -31 24 0 17 -1 17 -8 0
-5 -14 -15 7 -34 73 -15 50 -25 95 -22 100 4 6 2 10 -3 10 -16 0 -40 73 -52
160 -7 47 -21 126 -32 175 -10 50 -23 112 -28 138 -6 27 -12 52 -15 57 -3 5
-1 11 5 15 15 10 12 35 -4 29 -14 -5 -34 32 -23 43 3 3 50 4 104 4 72 -1 101
-5 112 -16 14 -13 13 -17 -1 -31 -13 -14 -22 -15 -48 -6 -24 9 -41 8 -70 -2
-28 -9 -40 -10 -43 -2 -2 6 -6 2 -9 -9 -5 -19 0 -20 76 -17 89 4 106 -6 106
-60 0 -21 4 -26 16 -21 9 3 14 13 11 25 -4 14 2 22 20 29 13 5 29 6 34 3 10
-6 39 13 39 26 0 4 -10 11 -22 15 -20 5 -15 9 27 21 36 10 58 11 79 4 21 -7
32 -7 37 1 4 6 12 8 18 5 6 -4 11 -2 11 3 0 6 -18 11 -39 11 -22 0 -43 5 -46
10 -3 6 -18 10 -33 11 -15 0 -21 3 -14 6 17 7 15 23 -3 23 -30 0 -14 16 28 27
46 13 43 3 48 135 3 73 -9 98 -47 98 -12 0 -30 8 -40 18 -26 25 -229 23 -248
-4 -11 -14 -30 -18 -105 -19 -102 -3 -91 -10 -121 75 -40 114 -40 115 -14 116
13 1 24 -2 24 -6 0 -12 83 9 92 23 14 23 8 28 -32 25 -22 -1 -40 -6 -40 -10 0
-4 -18 -8 -40 -8 -36 0 -41 3 -55 36 -19 46 -20 81 -2 67 6 -6 54 -13 106 -16
52 -3 99 -11 104 -16 17 -17 27 -13 27 9 0 13 -7 20 -20 20 -21 0 -28 24 -10
35 6 4 10 15 8 24 -2 10 3 25 11 35 17 20 15 22 -32 29 l-37 6 2 -41 c3 -39 2
-41 -37 -55 -51 -18 -145 -14 -156 7 -4 8 -24 50 -43 93 -35 77 -45 107 -26
77 9 -13 10 -13 9 0 0 8 -4 24 -9 35 l-9 20 -1 -20 c-3 -32 -30 38 -51 130
-22 95 -23 109 -7 99 8 -5 9 -2 5 10 -4 10 -7 33 -7 52 0 19 -5 34 -11 34 -8
0 -10 -13 -6 -37 5 -30 4 -34 -5 -19 -5 10 -8 34 -5 53 5 28 3 34 -9 29 -9 -3
-17 1 -20 12 -49 151 -144 272 -226 289 -15 3 -35 13 -45 23 -24 22 -135 66
-188 74 -22 4 -96 13 -165 20 -99 11 -152 24 -255 60 -121 42 -409 157 -605
241 -47 20 -98 41 -115 47 -16 5 -39 13 -50 18 -11 4 -45 18 -75 30 -52 21
-208 91 -295 132 l-40 19 75 -5 c52 -4 68 -3 53 4 -16 6 -21 14 -16 26 5 15 1
16 -33 11 -46 -7 -79 7 -54 23 18 12 30 13 95 10 117 -4 121 -6 111 -38 -4
-13 -13 -18 -25 -15 -9 2 -23 -2 -30 -10 -10 -13 0 -15 71 -15 46 0 116 -3
156 -7 63 -7 72 -6 72 9 0 14 -13 16 -89 16 -95 0 -107 5 -97 46 6 23 10 24
78 24 58 0 70 3 60 12 -7 7 -40 14 -74 15 -70 2 -84 14 -75 69 3 19 2 34 -4
34 -10 0 -11 -11 -10 -85 l1 -50 -14 30 c-14 30 -15 30 -22 7 -5 -19 -11 -22
-35 -17 -15 4 -61 7 -103 8 -58 1 -76 5 -79 17 -6 24 3 40 24 40 22 0 26 25 5
33 -8 3 -23 3 -34 0 -15 -3 -21 1 -24 21 -4 21 -1 27 18 32 13 3 24 9 24 13 0
7 -100 5 -107 -3 -3 -3 -18 1 -34 9 -18 10 -58 15 -109 15 -76 0 -82 -2 -88
-22 -5 -21 -6 -21 -13 -2 -4 10 -8 30 -8 43 -1 23 -1 23 104 19 79 -3 106 0
110 10 3 8 13 10 28 7 12 -3 34 -2 47 4 19 7 -10 10 -110 11 -74 1 -145 1
-157 0 -16 -1 -23 4 -24 17 -2 19 -5 47 -7 75 -2 12 -15 19 -47 24 -26 3 -52
13 -60 20 -9 9 -16 10 -20 4 -4 -6 -62 -10 -143 -10 -98 0 -133 3 -125 11 6 6
51 12 99 15 49 2 105 7 124 12 19 5 49 6 65 2 17 -3 59 -3 95 0 l65 6 -46 8
c-25 4 -61 6 -80 4 -32 -3 -34 -1 -34 29 0 45 -13 51 -20 9 -7 -36 -8 -36 -59
-38 -28 0 -58 0 -66 1 -8 1 -43 2 -78 2 -50 -1 -64 2 -69 16 -4 9 -1 19 5 21
7 2 12 10 12 18 0 10 13 14 44 14 25 0 47 4 50 9 7 11 -27 21 -72 21 -20 0
-31 4 -27 10 3 6 45 10 92 10 91 0 106 10 26 17 -44 4 -88 27 -78 42 2 4 -26
8 -63 8 -114 2 -192 13 -192 28 0 10 18 12 76 8 62 -3 80 -1 95 13 10 9 24 14
32 11 8 -3 20 -1 28 4 9 5 -25 10 -91 11 l-105 2 98 3 c53 2 97 8 97 12 0 8
-113 22 -202 25 -53 2 -28 16 30 17 31 1 84 4 117 8 54 6 57 7 28 13 -18 4
-33 12 -33 18 0 10 14 13 65 11 17 -1 37 3 45 9 11 7 1 10 -37 10 -58 0 -73
12 -49 39 21 23 20 27 -6 53 -20 20 -28 21 -275 21 -205 0 -253 3 -253 14 0
10 30 13 143 14 78 1 187 4 242 8 60 4 105 3 113 -2 17 -13 29 0 14 15 -9 9
-83 13 -257 14 -135 1 -248 4 -251 6 -2 3 102 8 233 12 131 4 241 10 245 12
16 10 -4 24 -33 24 -18 0 -28 4 -24 10 3 6 17 10 31 10 37 0 29 16 -19 39 -30
14 -63 21 -105 21 -80 0 -88 16 -12 25 46 5 66 3 84 -8 31 -21 61 -4 32 18
-18 14 -18 16 -3 33 9 10 15 30 13 47 -3 29 -6 30 -62 37 -32 3 -72 11 -88 17
-16 7 -37 9 -47 6 -13 -4 -19 -1 -19 8 0 12 15 14 70 12 39 -1 66 1 61 4 -5 4
-9 15 -8 26 3 32 -66 61 -141 61 -76 -1 -81 9 -9 17 174 21 264 42 230 54 -21
8 16 53 43 53 27 0 32 15 9 24 -8 3 -15 0 -15 -6 0 -23 -14 3 -15 28 0 19 6
29 25 38 14 6 30 15 35 21 11 11 11 80 -1 109 -5 14 -1 24 14 37 15 12 18 19
10 22 -10 4 -10 6 0 6 6 1 12 10 12 20 0 16 -11 22 -55 31 -36 7 -55 16 -55
26 0 8 5 14 12 14 9 0 9 3 0 12 -16 16 -15 28 3 28 8 0 15 -7 15 -15 0 -18 7
-18 49 -4 34 12 42 39 11 39 -17 0 -20 7 -20 40 0 28 4 40 14 40 21 0 25 23 7
37 -14 11 -14 13 4 27 11 8 27 16 36 16 21 0 49 32 49 56 0 11 -7 29 -15 41
-14 20 -13 23 7 40 18 14 22 26 20 56 -2 24 2 43 13 53 12 13 15 27 10 58 -4
22 -11 45 -16 51 -5 5 -9 17 -9 27 0 13 -8 18 -28 18 -16 0 -44 7 -62 16 -28
14 -30 18 -16 26 14 8 15 13 5 24 -6 8 -19 14 -28 15 -9 0 -2 7 17 16 17 9 32
19 32 23 0 4 -15 14 -32 23 l-33 16 37 0 c32 1 35 4 31 22 -4 15 1 27 18 40
l24 19 -44 0 c-39 0 -42 2 -30 16 11 14 10 20 -14 40 -16 13 -24 24 -18 24 16
0 41 86 28 99 -8 8 -8 14 1 23 18 18 15 38 -5 38 -11 1 -7 6 12 14 l30 13 -40
8 c-27 6 -40 4 -43 -4 -2 -6 -21 -11 -41 -11 -28 0 -46 8 -67 27 -25 24 -27
28 -11 31 18 4 18 5 1 23 -14 16 -15 21 -3 35 7 9 13 26 14 38 0 15 10 24 34
32 l33 11 -31 13 c-51 21 -39 33 44 43 23 3 20 4 -12 6 -47 1 -46 -1 -43 84
l2 57 -41 0 c-23 0 -41 -4 -41 -10 0 -5 -20 -10 -45 -10 -38 0 -45 3 -45 20 0
13 7 20 20 20 27 0 25 18 -2 30 -17 6 -18 9 -6 9 9 1 19 10 23 20 4 12 12 18
21 14 8 -3 14 1 14 11 0 9 -7 16 -15 16 -8 0 -15 7 -15 15 0 9 -7 18 -15 21
-8 4 -15 12 -15 19 0 7 -6 26 -14 42 -65 133 -67 140 -50 193 9 27 13 57 10
66 -4 9 -2 22 4 29 15 18 30 105 36 198 3 58 10 89 28 120 45 81 55 177 21
217 -7 8 -34 56 -60 105 -26 50 -52 96 -58 103 -6 7 -14 34 -19 60 -5 26 -12
64 -16 85 -7 35 -27 65 -100 149 -32 35 -33 41 -27 87 5 40 4 51 -10 58 -18
10 -42 96 -54 190 -6 42 -16 73 -33 95 -14 18 -28 42 -32 54 -9 29 -140 145
-206 182 -57 32 -229 94 -241 86 -6 -3 -36 29 -116 124 -25 30 -44 41 -83 50
-29 7 -64 21 -78 33 -16 12 -34 18 -47 15 -14 -4 -27 2 -39 15 -12 15 -25 20
-43 16 -13 -2 -38 2 -53 10 -16 7 -69 20 -117 28 -49 8 -105 21 -124 29 -36
15 -116 31 -136 28 -6 -2 -14 2 -18 8 -3 5 -14 10 -24 10 -9 0 -36 9 -58 20
-50 24 -147 37 -157 22z m89 -63 c4 -6 5 -13 1 -16 -8 -8 -56 6 -56 17 0 13
47 13 55 -1z m-280 -19 c3 -5 -3 -10 -15 -10 -12 0 -18 5 -15 10 3 6 10 10 15
10 5 0 12 -4 15 -10z m345 -2 c0 -4 -7 -8 -15 -8 -8 0 -15 4 -15 8 0 5 7 9 15
9 8 0 15 -4 15 -9z m-776 -139 c-3 -5 -10 -7 -15 -3 -5 3 -7 10 -3 15 3 5 10
7 15 3 5 -3 7 -10 3 -15z m1516 -77 c0 -15 -2 -15 -10 -2 -13 20 -13 33 0 25
6 -3 10 -14 10 -23z m49 -47 c0 -5 -6 -1 -14 9 -8 10 -11 24 -8 29 6 10 21
-16 22 -38z m221 -105 c0 -5 -4 -10 -10 -10 -5 0 -10 5 -10 10 0 6 5 10 10 10
6 0 10 -4 10 -10z m-50 -70 c0 -5 -2 -10 -4 -10 -3 0 -8 5 -11 10 -3 6 -1 10
4 10 6 0 11 -4 11 -10z m118 -215 c-3 -3 -9 2 -12 12 -6 14 -5 15 5 6 7 -7 10
-15 7 -18z m-1517 -427 c5 -10 8 -18 5 -18 -8 0 -86 85 -86 93 0 11 69 -53 81
-75z m1014 -237 c-7 -23 14 -39 26 -20 7 11 9 10 9 -3 0 -20 16 -24 22 -6 3 7
11 9 24 4 10 -5 33 -10 51 -12 30 -3 73 -24 100 -50 7 -7 22 -10 33 -7 15 4
19 2 15 -10 -4 -10 2 -17 18 -21 27 -6 90 -64 95 -86 2 -8 11 -26 20 -40 9
-14 15 -30 14 -36 -1 -7 10 -23 25 -36 42 -35 83 -93 89 -128 4 -16 10 -30 15
-30 13 0 11 -44 -3 -58 -8 -8 -8 -15 -1 -24 13 -16 14 -68 2 -68 -5 0 -9 -9
-9 -20 0 -11 5 -20 11 -20 5 0 8 -4 4 -9 -3 -6 4 -19 17 -30 12 -12 19 -24 15
-27 -4 -4 -16 1 -27 11 -18 16 -20 16 -20 2 0 -10 5 -17 10 -17 6 0 10 -4 10
-10 0 -5 -6 -10 -14 -10 -7 0 -19 -20 -26 -45 -11 -41 -11 -48 5 -65 14 -16
16 -23 7 -32 -9 -9 -9 -15 1 -26 9 -12 9 -16 0 -19 -18 -6 -16 -23 1 -23 9 0
12 -7 9 -19 -3 -13 2 -20 19 -25 15 -5 18 -9 10 -13 -8 -3 -19 0 -25 6 -13 13
-37 15 -37 2 0 -5 9 -11 19 -14 10 -2 24 -14 30 -25 9 -17 8 -21 -6 -21 -10 1
-56 -2 -102 -6 -90 -7 -154 -25 -184 -53 -19 -16 -19 -16 -13 6 9 26 -1 28
-26 5 -17 -15 -18 -15 -18 2 0 14 -4 13 -20 -8 -12 -14 -27 -24 -34 -21 -16 6
-31 -12 -40 -50 -6 -23 -9 -27 -17 -15 -5 7 -9 25 -10 39 -1 23 -2 22 -16 -9
-8 -19 -13 -45 -10 -58 3 -16 -2 -27 -14 -34 -20 -10 -23 -6 -20 24 1 9 -4 17
-13 17 -12 0 -16 -11 -16 -45 0 -43 -1 -45 -20 -35 -11 6 -20 17 -20 25 0 7
-4 16 -9 20 -11 6 1 -41 19 -75 14 -26 -4 -56 -19 -31 -11 18 -31 5 -31 -19 0
-21 -20 -39 -20 -18 -1 10 -4 9 -13 -2 -7 -9 -26 -25 -43 -37 -17 -12 -39 -40
-49 -62 -17 -38 -17 -43 0 -93 18 -56 49 -125 90 -197 31 -54 65 -150 65 -181
0 -13 7 -32 16 -42 13 -14 14 -21 5 -32 -10 -12 -9 -20 4 -40 14 -21 16 -41
12 -100 -5 -56 -2 -78 9 -92 14 -18 14 -18 28 0 8 10 19 15 25 12 5 -4 11 6
13 21 4 39 28 39 66 2 23 -23 32 -40 32 -64 0 -52 -12 -96 -27 -102 -23 -9
-73 18 -73 39 0 24 -18 58 -30 58 -6 0 -10 -10 -10 -22 -1 -22 -46 -110 -80
-155 -8 -11 -34 -32 -57 -48 -24 -15 -43 -32 -43 -36 0 -5 -7 -9 -15 -9 -9 0
-15 -9 -15 -24 0 -14 -4 -28 -10 -31 -14 -9 -12 -43 3 -48 9 -3 9 -7 -1 -20
-12 -14 -10 -17 15 -22 15 -4 36 -10 45 -16 10 -5 23 -9 30 -9 22 0 70 -51 64
-67 -3 -8 -1 -23 4 -34 9 -15 7 -19 -5 -19 -8 0 -33 -11 -55 -25 -22 -14 -47
-25 -55 -25 -9 0 -18 -7 -21 -15 -4 -8 -10 -13 -14 -10 -12 7 -17 -3 -25 -52
l-7 -42 121 1 c108 1 123 -1 135 -17 11 -16 12 -24 1 -50 -8 -16 -20 -45 -27
-62 -7 -18 -16 -33 -20 -33 -5 0 -8 -9 -8 -20 0 -31 -57 -44 -255 -58 -126 -9
-145 -14 -227 -58 -31 -17 -40 -64 -13 -64 8 0 16 -6 16 -12 2 -18 1 -21 -6
-39 -5 -13 4 -15 60 -15 36 1 65 -2 65 -6 0 -5 5 -8 11 -8 6 0 8 9 4 20 -6 18
-2 20 44 20 27 0 61 -4 76 -10 18 -7 31 -6 44 2 15 9 27 6 67 -18 27 -16 57
-32 67 -36 9 -4 17 -11 17 -16 0 -5 14 -12 30 -15 29 -6 40 -29 20 -42 -5 -3
-10 -17 -10 -30 0 -13 -5 -25 -11 -27 -8 -3 -2 -21 15 -53 28 -54 34 -81 14
-69 -9 5 -9 2 1 -9 8 -10 9 -17 3 -17 -12 0 -22 10 -47 45 -14 20 -14 20 -15
-2 0 -33 -19 -28 -32 8 -13 39 -18 33 -24 -32 -8 -76 -8 -82 1 -103 7 -15 5
-17 -6 -10 -8 4 -21 7 -30 6 -17 -3 -29 24 -29 66 0 12 -6 22 -14 22 -21 0
-27 28 -8 39 15 9 14 10 -5 11 -14 0 -23 6 -23 15 0 11 7 14 25 9 18 -4 25 -2
25 9 0 8 -9 17 -21 20 -12 3 -18 10 -14 16 8 14 -3 51 -16 51 -5 0 -9 -13 -9
-29 0 -16 -6 -31 -12 -33 -17 -6 -11 -78 8 -99 8 -8 14 -20 14 -26 0 -17 -39
-3 -54 19 -11 15 -16 16 -22 7 -5 -8 -11 1 -18 26 -8 27 -21 44 -44 56 -34 20
-35 19 -26 -5 3 -9 11 -13 16 -10 6 4 3 -5 -6 -18 -9 -14 -14 -27 -11 -30 3
-2 9 -26 14 -51 8 -47 0 -62 -17 -31 -8 13 -13 10 -32 -20 -24 -40 -43 -43
-48 -8 -2 12 -8 22 -13 22 -6 0 -7 5 -3 11 10 17 15 70 8 91 -10 33 -23 19
-26 -29 -2 -32 -8 -48 -16 -48 -8 0 -19 -8 -26 -17 -7 -10 -16 -15 -19 -11 -4
3 -2 12 4 19 6 7 9 23 7 36 l-4 23 -11 -25 c-6 -14 -18 -32 -28 -40 -15 -12
-16 -11 -9 16 4 16 13 38 20 49 8 11 14 26 14 35 0 8 -11 -5 -24 -29 -15 -28
-31 -46 -45 -48 -18 -2 -21 0 -16 17 3 11 2 20 -4 20 -14 0 -41 -41 -41 -62 0
-10 -6 -18 -14 -18 -16 0 -30 -43 -27 -84 2 -18 -1 -26 -8 -22 -16 10 -14 106
2 106 13 0 70 101 62 109 -3 2 -14 -4 -25 -14 -13 -12 -20 -14 -20 -6 0 7 -6
11 -12 8 -7 -2 -12 -10 -10 -18 6 -23 -8 -58 -33 -85 -30 -33 -31 -30 -5 24
24 49 25 62 5 62 -18 0 -20 26 -2 33 9 4 9 6 0 6 -6 1 -15 -3 -18 -9 -3 -5
-13 -10 -22 -10 -14 0 -14 2 1 19 16 17 16 19 0 25 -12 5 -24 -2 -39 -20 -13
-17 -34 -28 -53 -30 -42 -5 -41 10 3 30 42 20 50 32 26 39 -11 2 -34 -4 -53
-16 -18 -11 -47 -21 -65 -22 -17 -2 -36 -5 -41 -9 -6 -3 -13 -2 -17 4 -3 5 -1
10 4 10 6 0 11 7 11 16 0 12 -6 15 -25 10 -14 -4 -25 -2 -25 3 0 11 25 21 55
21 13 0 27 5 31 11 3 6 15 9 25 6 28 -7 32 8 6 20 -23 10 -63 10 -113 -1 -19
-4 -36 -1 -49 8 -19 15 -19 15 12 16 33 0 51 14 33 25 -14 8 -13 25 1 25 13 0
38 29 39 44 0 5 -7 3 -15 -4 -8 -6 -19 -9 -25 -5 -5 3 -17 0 -25 -9 -13 -13
-19 -13 -43 0 -35 18 -82 17 -106 -1 -14 -11 -22 -12 -27 -4 -10 16 -29 2 -29
-22 0 -10 -5 -19 -10 -19 -18 0 1 54 26 75 16 14 24 31 24 53 0 18 5 32 13 33
9 0 9 2 -1 6 -17 7 -60 -41 -58 -63 1 -12 -12 -23 -40 -33 -23 -9 -49 -22 -58
-30 -22 -18 -26 -12 -13 19 15 36 15 70 0 70 -7 0 -13 -11 -13 -25 0 -14 -4
-25 -10 -25 -5 0 -10 7 -10 16 0 9 -8 14 -17 13 -10 -1 -23 -1 -29 0 -15 1 -9
53 8 66 21 15 53 73 45 81 -9 9 -37 -15 -37 -31 0 -7 -6 -18 -14 -24 -12 -10
-11 -5 1 31 8 24 20 50 26 58 13 16 37 58 37 63 0 2 -19 -14 -42 -35 -23 -21
-47 -37 -54 -34 -15 6 -27 -21 -14 -29 6 -4 14 -3 20 0 6 4 9 -4 7 -17 -1 -15
-11 -26 -27 -31 -20 -6 -29 -2 -45 18 -25 31 -35 32 -35 4 0 -12 -9 -37 -21
-55 -28 -46 -57 -33 -50 24 1 6 -3 12 -10 12 -7 0 -9 10 -7 25 4 17 1 25 -8
25 -8 0 -14 -9 -14 -19 0 -43 -56 -37 -66 7 -11 52 -17 58 -24 22 l-7 -35 -12
30 c-7 16 -10 40 -6 52 3 13 2 22 -2 21 -5 -2 -10 2 -12 7 -3 6 -11 17 -19 25
-10 9 -11 15 -3 18 18 6 13 31 -9 44 -13 9 -20 24 -20 45 0 40 17 44 26 6 10
-48 13 -53 28 -53 13 0 14 4 4 28 -7 15 -16 33 -21 39 -5 7 -6 29 -3 48 7 36
-1 44 -22 23 -9 -9 -12 -8 -12 6 0 9 5 14 10 11 6 -4 10 5 10 19 0 16 6 26 15
26 8 0 15 9 15 20 0 14 -7 20 -21 20 -19 0 -21 4 -16 40 3 23 1 40 -5 40 -14
0 1 39 24 62 25 25 15 37 -11 14 -11 -10 -23 -37 -27 -59 -4 -23 -9 -34 -11
-25 -3 13 -12 16 -39 13 -19 -3 -34 0 -34 5 0 6 7 10 15 10 10 0 15 10 15 31
0 16 -4 28 -9 24 -14 -8 -21 9 -11 25 12 20 40 -5 40 -36 0 -13 5 -24 10 -24
6 0 10 15 10 34 0 18 3 48 6 65 5 23 3 31 -7 31 -8 0 -20 14 -28 31 -8 18 -19
28 -26 25 -8 -3 -15 3 -17 16 -4 29 -28 36 -28 9 0 -12 -6 -21 -13 -21 -10 0
-18 27 -27 88 -14 98 -33 190 -50 242 -11 35 -15 314 -4 332 7 12 4 342 -4
388 -3 19 -6 91 -6 160 0 110 3 132 25 182 30 69 60 105 94 114 25 6 35 24 14
24 -29 0 16 29 63 40 33 8 46 15 37 21 -19 12 -7 20 40 26 22 3 38 9 35 14 -2
5 -19 5 -37 2 -30 -6 -31 -5 -15 10 9 9 21 17 27 17 5 0 16 6 23 13 7 6 35 23
61 36 47 24 67 41 50 41 -5 0 -18 -7 -29 -15 -19 -15 -54 -20 -54 -9 0 4 8 13
18 21 15 13 15 13 -8 7 -24 -6 -24 -6 -5 9 13 10 22 12 26 5 4 -6 16 -7 30 -2
13 4 32 8 42 9 27 3 100 72 91 86 -2 4 -17 -6 -33 -22 -29 -29 -51 -37 -51
-20 0 5 7 12 16 15 8 3 13 10 10 15 -5 7 46 36 66 36 4 0 13 6 20 13 8 8 8 12
1 12 -6 0 -14 -6 -16 -12 -4 -9 -6 -7 -6 3 -1 9 10 24 23 34 25 19 35 48 42
128 3 34 13 57 29 75 28 30 32 47 10 38 -8 -3 -15 -1 -15 4 0 6 4 10 10 10 5
0 16 14 25 30 9 17 22 30 29 30 8 0 16 4 18 9 6 16 171 161 184 161 13 0 91
42 143 77 19 13 48 23 65 23 18 0 37 5 43 11 6 6 65 12 138 15 96 3 132 7 145
19 22 20 43 19 89 -5 48 -24 119 -30 131 -10 5 8 12 11 16 8 3 -4 27 4 51 18
28 15 60 24 86 24 23 0 57 0 76 0 19 0 41 6 50 14 12 10 28 12 66 6 28 -4 55
-4 60 0 6 4 29 6 53 5 23 -2 42 1 42 6 0 5 5 9 11 9 6 0 8 -8 4 -19z m-575
-51 c11 -7 5 -10 -22 -10 -21 0 -38 5 -38 10 0 13 40 13 60 0z m1037 -1066
c-3 -3 -12 -4 -19 -1 -8 3 -5 6 6 6 11 1 17 -2 13 -5z m72 -250 c48 -6 52 -8
36 -20 -10 -7 -23 -11 -29 -7 -6 3 -1 -4 12 -16 12 -12 36 -27 52 -33 52 -18
33 -24 -62 -22 -75 3 -84 1 -48 -6 25 -4 61 -15 80 -24 34 -16 32 -16 -72 -12
-96 4 -119 2 -238 -29 -72 -18 -139 -40 -148 -48 -28 -25 -83 -49 -98 -43 -17
6 -7 36 12 36 7 0 17 6 21 13 7 11 76 50 93 52 3 0 17 8 31 18 38 25 85 37
149 37 30 0 62 5 70 10 11 7 -3 10 -47 10 -34 0 -68 3 -77 6 -17 7 -22 34 -7
34 6 0 22 11 36 24 37 35 88 39 234 20z m73 -225 c24 -17 26 -23 18 -52 -9
-29 -8 -30 5 -13 15 20 15 20 15 0 0 -11 -6 -28 -13 -38 -18 -25 -119 -56
-153 -47 l-27 7 25 16 c32 21 58 76 58 123 0 33 2 36 23 29 12 -3 34 -15 49
-25z m-352 -18 c0 -15 11 -45 25 -66 15 -20 24 -39 21 -42 -2 -3 -29 2 -59 11
-30 9 -74 16 -96 16 -34 0 -41 3 -41 20 0 11 6 20 14 20 8 0 16 4 18 8 4 12
90 62 106 62 7 0 12 -12 12 -29z m110 -5 c-13 -13 -35 7 -25 24 5 8 11 8 21
-1 10 -8 12 -15 4 -23z m-40 16 c0 -13 -12 -22 -22 -16 -10 6 -1 24 13 24 5 0
9 -4 9 -8z m90 -2 c0 -5 -2 -10 -4 -10 -3 0 -8 5 -11 10 -3 6 -1 10 4 10 6 0
11 -4 11 -10z m-335 -80 c-3 -5 -10 -10 -16 -10 -5 0 -9 5 -9 10 0 6 7 10 16
10 8 0 12 -4 9 -10z m202 -54 c79 -7 123 -22 123 -43 0 -7 9 -13 19 -13 10 0
22 -7 25 -16 3 -8 10 -12 16 -9 19 12 80 -15 80 -35 0 -14 -10 -20 -40 -25
-22 -4 -40 -12 -40 -20 0 -21 111 -47 157 -37 45 10 70 3 97 -27 11 -11 29
-21 40 -21 16 0 24 -10 34 -40 6 -22 12 -46 12 -54 0 -8 6 -19 13 -23 22 -13
29 -59 12 -73 -19 -16 -19 -30 0 -30 26 0 18 -56 -12 -84 -21 -19 -25 -28 -16
-37 12 -12 6 -77 -8 -93 -5 -6 -9 -23 -9 -39 0 -22 -4 -28 -15 -23 -21 8 -31
-22 -16 -47 10 -16 10 -21 0 -27 -16 -11 -41 -1 -36 14 3 6 -1 17 -8 23 -10
10 -15 9 -19 -4 -4 -8 -2 -21 4 -28 14 -16 24 -105 12 -105 -6 0 -13 8 -16 17
-6 15 -10 13 -32 -10 -14 -15 -29 -25 -35 -22 -5 4 -9 -3 -9 -14 0 -28 -58
-39 -99 -18 -19 10 -45 13 -69 10 -45 -6 -86 11 -78 33 4 10 -2 14 -22 14 -16
0 -32 4 -38 9 -15 15 -84 25 -84 12 0 -7 -9 -5 -25 5 -14 9 -25 20 -25 25 0
14 48 11 54 -3 4 -7 4 5 1 27 -2 22 -9 41 -15 43 -6 2 -6 10 -1 20 12 25 21
80 13 84 -12 5 -44 106 -38 117 4 5 -5 38 -18 73 -26 68 -47 276 -26 263 6 -4
10 5 10 20 0 16 -4 24 -10 20 -10 -6 -7 21 6 63 2 8 -1 10 -8 6 -8 -5 -9 -2
-5 9 9 24 -2 47 -22 47 -9 0 -25 17 -37 39 l-21 38 65 1 c36 1 67 4 70 7 3 3
8 1 11 -3 3 -5 38 -12 78 -16z m1087 -12 c9 -3 16 -17 16 -30 0 -13 5 -24 11
-24 8 0 7 -5 -1 -15 -11 -14 -16 -14 -35 -1 -12 8 -32 16 -46 18 -38 5 -36 35
3 47 18 5 34 10 35 10 1 1 8 -2 17 -5z m-889 -24 c3 -5 -3 -10 -14 -10 -11 0
-23 5 -26 10 -3 6 3 10 14 10 11 0 23 -4 26 -10z m910 -116 c-11 -9 -35 -11
-69 -7 -63 7 -72 13 -20 13 21 0 48 7 58 15 15 11 23 12 34 3 12 -10 11 -14
-3 -24z m-3669 -31 c-10 -10 -19 5 -10 18 6 11 8 11 12 0 2 -7 1 -15 -2 -18z
m3569 -33 c17 -4 -49 -18 -85 -18 l-35 0 34 12 c31 11 52 12 86 6z m-535 -635
c0 -8 -4 -15 -9 -15 -13 0 -22 16 -14 24 11 11 23 6 23 -9z m-900 -55 c0 -5
-7 -10 -16 -10 -8 0 -12 5 -9 10 3 6 10 10 16 10 5 0 9 -4 9 -10z m-1871 -27
c0 -25 -1 -26 -9 -8 -12 27 -12 35 0 35 6 0 10 -12 9 -27z m1881 -23 c0 -5 -5
-10 -11 -10 -5 0 -7 5 -4 10 3 6 8 10 11 10 2 0 4 -4 4 -10z m40 -30 c0 -5
-10 -10 -22 -10 -19 0 -20 2 -8 10 19 13 30 13 30 0z m137 -159 c16 -16 38
-30 49 -33 11 -2 20 -13 22 -26 3 -18 -1 -22 -22 -22 -14 0 -26 4 -26 8 0 5
-18 16 -40 26 -38 17 -53 36 -28 36 9 0 9 3 0 12 -7 7 -12 16 -12 20 0 17 30
6 57 -21z m-1977 -58 l0 -37 -20 22 c-11 12 -20 28 -20 37 0 8 9 15 20 15 16
0 20 -7 20 -37z m2880 -283 c0 -5 -4 -10 -10 -10 -5 0 -10 5 -10 10 0 6 5 10
10 10 6 0 10 -4 10 -10z m-30 -16 c0 -8 -5 -12 -10 -9 -6 4 -8 11 -5 16 9 14
15 11 15 -7z m297 0 c-3 -3 -12 -4 -19 -1 -8 3 -5 6 6 6 11 1 17 -2 13 -5z
m-1156 -45 c-18 -11 -36 -18 -39 -14 -9 8 31 34 53 35 15 0 12 -5 -14 -21z
m-71 -19 c0 -5 -4 -10 -10 -10 -5 0 -10 5 -10 10 0 6 5 10 10 10 6 0 10 -4 10
-10z m377 -12 c-3 -8 -6 -5 -6 6 -1 11 2 17 5 13 3 -3 4 -12 1 -19z m603 8 c0
-3 -4 -8 -10 -11 -5 -3 -10 -1 -10 4 0 6 5 11 10 11 6 0 10 -2 10 -4z m-1024
-86 c23 0 7 -17 -20 -22 -15 -3 -27 0 -30 8 -6 16 5 26 22 19 7 -3 20 -5 28
-5z m99 0 c4 -6 21 -8 41 -4 21 4 34 2 34 -4 0 -17 -19 -24 -73 -28 -57 -4
-84 9 -64 31 14 17 53 19 62 5z m-180 -10 c3 -5 -1 -10 -10 -10 -9 0 -13 5
-10 10 3 6 8 10 10 10 2 0 7 -4 10 -10z m-1610 -10 c3 -5 1 -10 -4 -10 -6 0
-11 5 -11 10 0 6 2 10 4 10 3 0 8 -4 11 -10z m135 -16 c0 -17 -40 -74 -52 -74
-9 0 1 52 12 60 3 3 9 13 13 23 8 20 27 14 27 -9z m2628 -10 c2 -1 -8 -4 -22
-6 -36 -7 -53 6 -36 26 12 15 15 15 34 -1 12 -10 22 -18 24 -19z m32 12 c0 -3
-4 -8 -10 -11 -5 -3 -10 -1 -10 4 0 6 5 11 10 11 6 0 10 -2 10 -4z m-2772 -28
c7 -7 12 -19 12 -27 -1 -12 -6 -10 -20 8 l-20 23 0 -28 c0 -23 -2 -26 -10 -14
-25 38 6 70 38 38z m142 -2 c0 -8 -4 -18 -10 -21 -5 -3 -10 3 -10 14 0 12 5
21 10 21 6 0 10 -6 10 -14z m2550 -55 c0 -5 -15 -11 -32 -14 -18 -3 -46 -9
-62 -13 -22 -5 -28 -4 -24 7 3 8 13 13 22 11 9 -2 24 2 34 7 21 13 62 14 62 2z
m380 -1 c0 -5 -4 -10 -10 -10 -5 0 -10 5 -10 10 0 6 5 10 10 10 6 0 10 -4 10
-10z m-545 -50 c3 -5 -3 -10 -15 -10 -12 0 -18 5 -15 10 3 6 10 10 15 10 5 0
12 -4 15 -10z m265 -30 c0 -5 -11 -10 -23 -10 -13 0 -58 -3 -100 -6 -59 -5
-77 -4 -77 6 0 8 10 11 33 7 17 -3 55 -2 82 3 74 11 85 11 85 0z m-2290 -4 c0
-11 -19 -15 -25 -6 -3 5 1 10 9 10 9 0 16 -2 16 -4z m74 -5 c3 -5 -4 -11 -17
-15 -35 -9 -40 -7 -27 9 14 17 36 20 44 6z m1901 -26 c0 -14 -3 -25 -7 -25 -5
0 -8 11 -8 25 0 14 3 25 8 25 4 0 7 -11 7 -25z m-713 -10 c3 -13 1 -22 -3 -19
-9 5 -13 44 -5 44 2 0 6 -11 8 -25z m-1491 -28 c-8 -8 -11 -7 -11 4 0 20 13
34 18 19 3 -7 -1 -17 -7 -23z m202 13 c-3 -11 -9 -20 -15 -20 -5 0 -4 9 2 20
6 11 12 20 14 20 2 0 2 -9 -1 -20z m2597 -12 c0 -4 -37 -7 -82 -7 -56 1 -72 4
-48 8 52 9 130 9 130 -1z m-1302 -34 c12 -8 20 -19 17 -23 -2 -5 2 -17 10 -27
8 -10 14 -26 14 -34 0 -8 -7 -1 -16 15 -8 17 -27 42 -41 58 -28 30 -19 36 16
11z m722 -6 c0 -6 -6 -5 -15 2 -8 7 -15 14 -15 16 0 2 7 1 15 -2 8 -4 15 -11
15 -16z m-1930 -8 c0 -5 -5 -10 -11 -10 -5 0 -7 5 -4 10 3 6 8 10 11 10 2 0 4
-4 4 -10z m1950 -38 c0 -15 -2 -15 -10 -2 -13 20 -13 33 0 25 6 -3 10 -14 10
-23z m-1115 -11 c3 -5 1 -12 -5 -16 -5 -3 -10 1 -10 9 0 18 6 21 15 7z m-964
-34 c-10 -9 -11 -8 -5 6 3 10 9 15 12 12 3 -3 0 -11 -7 -18z m2214 13 c4 -6
-11 -10 -39 -10 -29 0 -51 -6 -62 -17 -17 -17 -18 -17 -11 0 4 11 2 17 -8 17
-8 0 -15 5 -15 10 0 6 28 10 64 10 36 0 68 -4 71 -10z m-1895 -15 c-7 -8 -18
-15 -24 -15 -6 0 -2 7 8 15 25 19 32 19 16 0z m900 -15 c0 -5 -4 -10 -10 -10
-5 0 -10 5 -10 10 0 6 5 10 10 10 6 0 10 -4 10 -10z m-860 -10 c0 -5 -5 -10
-11 -10 -5 0 -7 5 -4 10 3 6 8 10 11 10 2 0 4 -4 4 -10z m114 -15 c-6 -16 -24
-21 -24 -7 0 11 11 22 21 22 5 0 6 -7 3 -15z m1696 -11 c11 -4 12 -7 1 -13
-21 -13 -56 -7 -59 11 -3 16 10 17 58 2z m585 7 c3 -6 2 -28 -1 -51 -6 -39 -9
-41 -33 -35 -14 4 -59 6 -100 6 -41 0 -78 2 -84 6 -16 10 16 23 61 23 23 0 42
5 42 10 0 7 -27 10 -72 8 -63 -3 -73 -5 -70 -20 2 -10 -2 -18 -8 -18 -5 0 -10
6 -10 14 0 16 -30 24 -85 22 -111 -5 -116 -6 -109 -17 4 -7 23 -9 53 -5 80 11
106 11 111 1 5 -10 -49 -20 -141 -26 l-54 -4 0 35 0 35 160 2 c88 1 194 6 235
11 41 5 80 10 87 11 6 0 14 -3 18 -8z m-2089 -12 c3 -6 1 -16 -5 -22 -9 -9
-14 -8 -21 3 -5 8 -10 18 -10 23 0 11 28 8 36 -4z m107 -39 c-3 -11 -12 -20
-20 -20 -11 0 -11 4 -3 20 6 11 15 20 19 20 5 0 7 -9 4 -20z m-150 -22 c-18
-20 -26 -19 -18 4 3 8 12 15 20 15 13 0 12 -4 -2 -19z m1577 -19 c0 -14 -11
-11 -32 8 -27 24 -22 36 7 17 14 -9 25 -20 25 -25z m-1530 17 c0 -2 -7 -9 -15
-16 -13 -11 -14 -10 -9 4 5 14 24 23 24 12z m1773 -55 c71 -1 117 -5 117 -11
0 -6 -48 -10 -122 -11 -68 -1 -134 -4 -146 -8 -23 -6 -23 -7 -5 -22 25 -22 72
-32 88 -19 9 8 24 8 47 1 32 -9 32 -9 6 -10 -18 -1 -28 -6 -28 -17 0 -8 -5
-12 -10 -9 -6 4 -22 0 -35 -9 -23 -15 -25 -15 -52 22 -15 20 -43 51 -61 67
l-33 30 58 -2 c32 -1 111 -2 176 -2z m100 -67 c9 -3 13 -13 10 -24 -6 -22 -60
-37 -76 -21 -8 8 -1 11 27 11 42 0 46 20 5 31 -22 7 -22 7 -2 8 12 1 28 -2 36
-5z m-164 -90 c5 3 7 -4 4 -16 -3 -14 -1 -18 4 -12 13 18 151 24 164 7 8 -9
41 -13 117 -13 58 0 102 -3 99 -7 -4 -3 -88 -5 -187 -5 -142 2 -180 -1 -180
-11 0 -7 5 -18 12 -25 9 -9 9 -12 1 -12 -7 0 -18 11 -25 24 -7 13 -22 39 -32
57 -15 27 -16 31 -3 21 9 -8 20 -11 26 -8z m-2273 -51 c-7 -7 -26 7 -26 19 0
6 6 6 15 -2 9 -7 13 -15 11 -17z m84 7 c0 -4 -11 -5 -25 -2 -14 2 -23 8 -20
12 6 10 45 1 45 -10z m-110 -20 c0 -5 -2 -10 -4 -10 -3 0 -8 5 -11 10 -3 6 -1
10 4 10 6 0 11 -4 11 -10z m33 -40 c9 -11 26 -20 37 -20 25 0 26 -16 2 -22
-21 -6 -42 8 -60 40 -15 27 -2 29 21 2z m2462 -13 c28 1 82 3 120 5 64 3 70 1
70 -17 0 -11 -8 -21 -19 -23 -14 -3 -17 0 -13 12 5 13 0 16 -26 15 -27 0 -29
-2 -12 -9 11 -5 16 -9 10 -9 -5 -1 -57 -3 -114 -6 -57 -3 -106 -7 -110 -9 -3
-2 -22 8 -41 24 l-34 28 59 -6 c33 -3 83 -5 110 -5z m-2168 -17 c17 -13 20
-20 11 -20 -8 0 -23 9 -33 20 -10 11 -15 20 -11 20 4 0 19 -9 33 -20z m1318
-19 c-3 -6 -14 -11 -23 -11 -15 1 -15 2 2 15 21 16 32 13 21 -4z m111 -18
c-10 -10 -19 5 -10 18 6 11 8 11 12 0 2 -7 1 -15 -2 -18z m-217 -15 c-8 -14
-14 -18 -17 -10 -4 13 17 46 25 38 3 -2 -1 -15 -8 -28z m1151 -8 c0 -5 -51
-10 -112 -12 -90 -2 -117 0 -130 12 -16 13 -4 15 112 12 72 -2 130 -7 130 -12z
m-2098 -10 c12 -11 18 -23 14 -27 -4 -4 -10 -3 -14 3 -4 6 -15 13 -25 17 -10
4 -15 11 -12 17 9 14 13 13 37 -10z m993 -29 c5 -16 4 -21 -4 -16 -7 4 -18 1
-26 -5 -18 -15 -19 -3 -2 33 13 28 21 25 32 -12z m-74 -4 c-1 -12 -15 -9 -19
4 -3 6 1 10 8 8 6 -3 11 -8 11 -12z m1174 -8 c4 -5 -4 -10 -17 -11 -13 0 -27
-2 -33 -3 -5 -2 -18 -3 -27 -4 -10 0 -18 -8 -18 -16 0 -13 -4 -14 -22 -4 -13
7 -32 19 -44 28 -19 15 -15 16 68 18 48 1 90 -2 93 -8z m-2485 -9 c0 -5 -4
-10 -10 -10 -5 0 -10 5 -10 10 0 6 5 10 10 10 6 0 10 -4 10 -10z m401 -4 c-13
-16 -51 -28 -51 -17 0 8 38 29 54 30 5 1 3 -5 -3 -13z m2472 -10 c11 3 17 0
17 -10 0 -23 -31 -27 -198 -23 -85 2 -155 0 -158 -5 -3 -5 -12 -1 -19 9 -7 10
-11 21 -9 25 3 5 40 8 82 9 42 0 100 4 127 8 32 4 66 2 95 -6 25 -7 53 -10 63
-7z m-1283 -7 c0 -5 -5 -9 -11 -9 -7 0 -18 -8 -25 -17 -13 -17 -13 -17 -14 0
0 9 5 17 10 17 6 0 10 7 10 15 0 9 6 12 15 9 8 -4 15 -10 15 -15z m-1560 -3
c0 -11 -19 -15 -25 -6 -3 5 1 10 9 10 9 0 16 -2 16 -4z m1340 -5 c0 -6 -4 -13
-10 -16 -5 -3 -10 1 -10 9 0 9 5 16 10 16 6 0 10 -4 10 -9z m1120 -2 c0 -5
-19 -9 -42 -9 -24 0 -38 4 -31 8 16 10 73 11 73 1z m-2010 -50 c0 -4 -9 -9
-20 -12 -23 -6 -24 -3 -9 25 9 17 13 18 20 7 5 -8 9 -17 9 -20z m1990 14 c22
-10 40 -22 40 -28 0 -5 4 -4 8 3 12 18 372 25 372 7 0 -16 -110 -28 -213 -24
-39 1 -93 -1 -119 -5 -42 -7 -50 -5 -85 20 -69 51 -70 56 -3 27z m-1910 -104
c-7 -22 -17 -39 -23 -39 -5 0 -6 8 -2 18 5 9 13 32 19 50 6 18 13 27 15 21 2
-6 -2 -29 -9 -50z m586 14 c-10 -10 -19 5 -10 18 6 11 8 11 12 0 2 -7 1 -15
-2 -18z m154 18 c0 -6 -4 -13 -10 -16 -5 -3 -10 1 -10 9 0 9 5 16 10 16 6 0
10 -4 10 -9z m1535 -1 c-4 -6 5 -10 19 -10 14 0 26 -4 26 -8 0 -12 -101 -13
-138 -3 -21 6 -32 6 -34 -1 -2 -6 -18 -11 -36 -10 -18 0 -32 -3 -32 -8 0 -12
-61 7 -80 25 -13 14 -12 15 17 13 17 -1 29 -6 26 -12 -4 -5 3 -6 18 -2 74 24
226 35 214 16z m-67 -77 c-15 -2 -42 -2 -60 0 -18 2 -6 4 27 4 33 0 48 -2 33
-4z m-2231 -25 c-3 -8 -6 -5 -6 6 -1 11 2 17 5 13 3 -3 4 -12 1 -19z m2543 10
c8 0 20 1 25 2 6 1 34 2 63 1 52 -1 52 -1 52 -34 l0 -33 -172 2 c-152 1 -180
4 -228 23 -30 13 -58 25 -62 29 -4 4 31 6 78 4 47 -1 93 2 102 8 9 5 42 7 72
4 30 -3 62 -6 70 -6z m-2570 -58 c0 -5 -4 -10 -10 -10 -5 0 -10 5 -10 10 0 6
5 10 10 10 6 0 10 -4 10 -10z m2523 -35 c35 -3 66 -15 38 -15 -7 0 -9 -4 -6
-10 3 -5 37 -10 74 -10 47 0 72 -4 80 -14 7 -8 8 -17 3 -20 -17 -10 -78 -9
-112 2 -53 18 -180 85 -145 77 17 -4 47 -8 68 -10z m207 5 c0 -5 -9 -10 -21
-10 -11 0 -17 5 -14 10 3 6 13 10 21 10 8 0 14 -4 14 -10z m-110 -14 c0 -11
-19 -15 -25 -6 -3 5 1 10 9 10 9 0 16 -2 16 -4z m-2487 -13 c-7 -2 -19 -2 -25
0 -7 3 -2 5 12 5 14 0 19 -2 13 -5z m-93 -23 c0 -5 -8 -10 -17 -10 -15 0 -16
2 -3 10 19 12 20 12 20 0z m150 -40 c0 -5 -4 -10 -10 -10 -5 0 -10 5 -10 10 0
6 5 10 10 10 6 0 10 -4 10 -10z m2816 -17 c-10 -10 -19 5 -10 18 6 11 8 11 12
0 2 -7 1 -15 -2 -18z m-4980 -30 c-11 -11 -19 6 -11 24 8 17 8 17 12 0 3 -10
2 -21 -1 -24z m4695 21 c12 -15 11 -16 -11 -9 -35 10 -49 25 -23 25 11 0 27
-7 34 -16z m-4661 -254 c0 -5 -7 -10 -15 -10 -8 0 -15 5 -15 10 0 6 7 10 15
10 8 0 15 -4 15 -10z m14 -102 c3 -16 4 -28 1 -28 -7 0 -23 41 -30 78 l-6 27
14 -25 c8 -14 17 -37 21 -52z m61 -116 c-8 -8 -25 17 -25 38 0 9 6 6 16 -8 9
-13 13 -26 9 -30z m25 38 c0 -5 -4 -10 -10 -10 -5 0 -10 5 -10 10 0 6 5 10 10
10 6 0 10 -4 10 -10z m20 -101 c0 -6 -4 -7 -10 -4 -5 3 -10 11 -10 16 0 6 5 7
10 4 6 -3 10 -11 10 -16z m1657 -1291 c-3 -8 -6 -5 -6 6 -1 11 2 17 5 13 3 -3
4 -12 1 -19z m21 -63 c-3 -3 -9 2 -12 12 -6 14 -5 15 5 6 7 -7 10 -15 7 -18z
m5682 10 c11 -13 8 -15 -19 -15 -30 0 -39 9 -24 23 11 11 30 8 43 -8z m91 -56
c6 -3 4 -11 -5 -18 -11 -10 -38 -11 -98 -7 -46 4 -100 8 -120 9 -51 3 -48 15
5 20 64 6 206 4 218 -4z m-432 -47 l10 -37 -5 38 -5 37 61 0 c33 0 60 -4 60
-10 0 -5 -7 -10 -15 -10 -8 0 -15 -4 -15 -10 0 -5 -9 -10 -20 -10 -12 0 -20
-7 -20 -18 0 -11 -12 -21 -34 -28 -34 -11 -35 -10 -50 31 -20 51 -20 50 3 52
14 1 22 -8 30 -35z m379 -38 c40 -20 41 -38 1 -54 -27 -12 -36 -11 -75 8 -25
12 -51 19 -61 15 -14 -5 -13 -2 5 17 12 13 22 28 22 33 0 13 69 1 108 -19z
m-363 -84 c-9 -15 -25 -2 -25 21 0 19 1 19 16 5 8 -9 12 -20 9 -26z m112 4
c-3 -3 -12 -4 -19 -1 -8 3 -5 6 6 6 11 1 17 -2 13 -5z m120 -1056 c-3 -7 -5
-2 -5 12 0 14 2 19 5 13 2 -7 2 -19 0 -25z m-21 -435 c-11 -29 -17 -6 -9 33 7
36 8 37 11 11 2 -16 1 -36 -2 -44z m4 -171 c0 -7 -4 -10 -10 -7 -13 8 -13 -5
0 -25 5 -8 10 -10 10 -4 0 6 11 12 24 12 17 0 26 -7 30 -24 4 -13 14 -24 23
-24 9 0 21 -6 27 -14 6 -8 27 -17 46 -21 28 -5 32 -4 20 5 -13 10 -12 11 3 6
10 -3 28 -6 39 -6 17 0 18 -3 8 -15 -7 -8 -18 -15 -25 -15 -8 0 -15 -5 -17
-11 -4 -13 -78 9 -78 23 0 4 -19 13 -42 19 -62 18 -68 18 -68 6 0 -28 -12 7
-19 55 -6 48 -5 54 11 54 10 0 18 -6 18 -14z m49 -139 c2 -2 -5 -3 -17 -3 -14
0 -22 6 -22 16 0 14 3 15 18 3 9 -7 19 -15 21 -16z m-52 -15 c-3 -7 -5 -2 -5
12 0 14 2 19 5 13 2 -7 2 -19 0 -25z m78 -307 c9 -16 -30 -32 -43 -19 -7 7
-12 16 -12 20 0 11 48 10 55 -1z m105 -1 c0 -5 -7 -10 -16 -10 -8 0 -12 5 -9
10 3 6 10 10 16 10 5 0 9 -4 9 -10z m47 -67 c6 -17 -38 -28 -48 -12 -4 7 -5
17 -2 22 7 12 46 4 50 -10z m-147 -45 c0 -5 -7 -23 -16 -40 -12 -24 -18 -28
-25 -17 -10 16 -12 63 -3 71 8 8 44 -3 44 -14z m111 -51 c30 6 42 -6 28 -27
-8 -13 -11 -12 -23 3 -10 13 -15 15 -19 5 -3 -9 -11 -6 -28 11 -20 20 -21 22
-4 13 11 -6 32 -8 46 -5z m-5888 -33 c-9 -15 -19 -21 -21 -15 -4 13 16 41 29
41 5 0 2 -12 -8 -26z m149 9 c19 -17 25 -73 8 -73 -5 0 -10 11 -10 24 0 27
-16 43 -23 24 -2 -7 -4 -1 -3 14 1 33 3 33 28 11z m5826 0 c2 -8 -5 -13 -17
-13 -12 0 -21 6 -21 16 0 18 31 15 38 -3z m-231 -35 c-3 -8 -6 -5 -6 6 -1 11
2 17 5 13 3 -3 4 -12 1 -19z m53 -37 c0 -4 -7 -8 -15 -8 -8 0 -15 6 -15 13 0
8 6 11 15 8 8 -4 15 -9 15 -13z m-5640 -51 c0 -5 -5 -10 -11 -10 -5 0 -7 5 -4
10 3 6 8 10 11 10 2 0 4 -4 4 -10z m5755 -30 c-3 -5 -13 -10 -21 -10 -8 0 -14
5 -14 10 0 6 9 10 21 10 11 0 17 -4 14 -10z m-60 -30 c3 -5 -3 -10 -14 -10
-12 0 -21 5 -21 10 0 6 6 10 14 10 8 0 18 -4 21 -10z m42 -6 c-3 -3 -12 -4
-19 -1 -8 3 -5 6 6 6 11 1 17 -2 13 -5z m40 0 c-3 -3 -12 -4 -19 -1 -8 3 -5 6
6 6 11 1 17 -2 13 -5z"/>
<path d="M4790 12030 c0 -5 7 -7 15 -4 8 4 15 8 15 10 0 2 -7 4 -15 4 -8 0
-15 -4 -15 -10z"/>
<path d="M4713 11990 c-25 -12 -32 -21 -30 -40 2 -22 -2 -25 -36 -27 -38 -2
-86 -29 -87 -49 0 -6 -7 -17 -15 -24 -26 -22 -16 -31 16 -14 29 15 31 15 26 0
-4 -9 -3 -16 1 -16 11 0 52 56 52 70 0 6 18 9 43 8 23 -1 56 2 72 7 27 7 29 7
17 -7 -12 -14 -7 -14 44 1 32 9 59 22 62 29 4 14 -24 16 -33 2 -7 -11 -58 -14
-68 -3 -9 8 24 32 46 33 9 0 17 5 17 11 0 14 -43 5 -87 -18 -18 -10 -35 -14
-39 -10 -10 10 25 36 59 43 15 4 30 10 32 14 8 13 -58 6 -92 -10z m44 -66 c-3
-3 -12 -4 -19 -1 -8 3 -5 6 6 6 11 1 17 -2 13 -5z"/>
<path d="M5034 11961 c-17 -10 -54 -22 -83 -26 -39 -5 -51 -11 -47 -21 4 -10
-2 -14 -20 -14 -13 0 -27 -7 -30 -15 -4 -8 -16 -15 -28 -15 -11 0 -28 -5 -36
-10 -11 -7 -5 -10 25 -11 22 -1 54 -5 70 -9 28 -7 28 -8 -11 -9 -27 -1 -44 -6
-48 -16 -3 -8 -16 -15 -28 -15 l-23 1 24 13 c33 18 5 27 -34 10 -18 -8 -23
-13 -12 -14 9 0 17 -7 17 -15 0 -11 14 -14 58 -13 31 0 94 -3 139 -7 90 -8
167 0 142 16 -8 5 -9 9 -3 9 5 0 15 -5 21 -11 7 -7 55 -12 120 -13 59 -1 114
-5 122 -10 7 -5 36 -10 65 -11 28 -2 45 -1 39 2 -18 7 -16 33 3 33 13 0 12 7
-8 43 -28 53 -58 87 -75 87 -7 0 -32 12 -55 28 -39 25 -50 27 -157 29 -99 2
-121 0 -147 -16z m-104 -91 c-36 -11 -52 -11 -45 0 3 6 21 10 38 9 31 -1 31
-1 7 -9z m520 -58 c0 -15 -2 -15 -10 -2 -13 20 -13 33 0 25 6 -3 10 -14 10
-23z m-40 -34 c0 -6 -7 -5 -15 2 -8 7 -15 17 -15 22 0 6 7 5 15 -2 8 -7 15
-17 15 -22z"/>
<path d="M6240 11944 c0 -8 5 -12 10 -9 6 4 8 11 5 16 -9 14 -15 11 -15 -7z"/>
<path d="M5521 11874 c0 -11 3 -14 6 -6 3 7 2 16 -1 19 -3 4 -6 -2 -5 -13z"/>
<path d="M4640 11860 c0 -5 4 -10 9 -10 6 0 13 5 16 10 3 6 -1 10 -9 10 -9 0
-16 -4 -16 -10z"/>
<path d="M4668 11823 c6 -2 18 -2 25 0 6 3 1 5 -13 5 -14 0 -19 -2 -12 -5z"/>
<path d="M4565 11795 c-23 -10 -25 -13 -10 -14 11 0 31 6 45 14 32 18 5 19
-35 0z"/>
<path d="M5528 11768 c4 -28 6 -30 12 -13 8 21 3 45 -9 45 -4 0 -5 -15 -3 -32z"/>
<path d="M4665 11750 c-16 -5 -13 -8 15 -13 39 -8 46 -5 22 9 -9 6 -26 8 -37
4z"/>
<path d="M5065 11661 l-50 -7 62 -8 c34 -4 67 -5 73 -1 16 10 50 -5 50 -22 0
-10 -6 -14 -20 -10 -11 3 -23 1 -26 -5 -3 -5 3 -12 15 -15 34 -9 24 -26 -11
-19 -110 20 -209 7 -349 -44 -57 -20 -95 -42 -121 -67 -38 -37 -49 -63 -25
-63 22 0 81 24 112 45 27 19 80 45 90 45 2 0 13 -20 24 -44 23 -54 62 -81 113
-80 64 2 95 21 123 77 14 28 25 61 25 74 0 13 3 23 6 23 13 0 160 -53 169 -61
5 -5 23 -9 41 -9 34 0 84 -33 71 -46 -4 -4 -38 -9 -75 -10 -50 -1 -76 -7 -102
-24 -19 -12 -27 -19 -16 -16 10 4 62 11 115 16 52 6 99 14 104 19 13 13 -9 55
-37 70 -26 14 -34 35 -17 45 5 3 22 -1 37 -9 15 -8 29 -13 31 -11 11 11 -34
81 -69 106 -75 55 -182 71 -343 51z m-105 -162 c0 -5 -4 -9 -10 -9 -5 0 -10 7
-10 16 0 8 5 12 10 9 6 -3 10 -10 10 -16z m50 6 c0 -8 -7 -15 -15 -15 -8 0
-15 7 -15 15 0 8 7 15 15 15 8 0 15 -7 15 -15z"/>
<path d="M4683 11540 c-43 -31 -69 -69 -35 -51 18 10 89 81 81 81 -3 0 -23
-14 -46 -30z"/>
<path d="M5789 10669 c-57 -9 -89 -28 -89 -53 0 -16 2 -17 17 -5 10 8 24 20
31 27 7 6 36 12 63 12 27 0 49 4 49 9 0 15 -22 18 -71 10z"/>
<path d="M5914 10516 c11 -9 16 -19 13 -23 -4 -3 -7 -3 -7 2 0 4 -7 2 -15 -5
-8 -7 -15 -21 -15 -31 0 -18 -25 -49 -40 -49 -4 0 -11 7 -14 16 -3 8 -2 13 3
9 5 -3 16 2 25 11 12 12 13 20 6 35 -6 10 -16 19 -23 19 -23 0 -67 -25 -67
-37 0 -7 -4 -13 -10 -13 -5 0 -10 -4 -10 -10 0 -5 6 -10 14 -10 8 0 16 -7 20
-15 7 -18 -34 -21 -51 -4 -8 8 -13 8 -17 0 -8 -13 -26 -15 -26 -2 0 4 11 20
26 36 33 36 24 43 -20 15 -20 -12 -40 -19 -46 -15 -9 6 -14 -14 -11 -42 2 -13
-53 -46 -61 -38 -3 3 -12 -3 -20 -12 -14 -16 -14 -20 1 -34 14 -14 19 -14 41
-1 23 13 23 13 3 9 -29 -6 -30 9 -2 23 16 9 23 8 32 -4 11 -14 15 -14 41 -1
18 10 33 12 39 6 5 -5 1 -12 -12 -16 -27 -8 -27 -35 -1 -35 12 0 24 10 29 24
10 25 43 44 49 27 2 -6 8 -11 14 -11 5 0 6 9 3 20 -8 25 20 28 29 4 5 -13 15
-15 46 -11 33 4 40 2 45 -15 4 -10 18 -23 32 -29 32 -12 133 -12 133 1 0 6 6
10 14 10 17 0 27 22 17 38 -4 6 -21 11 -38 9 -25 -2 -29 -5 -22 -18 10 -20 2
-29 -28 -29 -15 0 -23 6 -23 18 0 14 -2 14 -9 3 -6 -10 -9 -5 -8 15 1 16 6 32
12 36 5 4 11 25 11 47 1 31 -2 42 -17 46 -10 4 -23 4 -28 0 -6 -3 -13 1 -18 8
-4 8 -19 19 -33 26 -23 11 -24 11 -6 -3z"/>
<path d="M6010 10369 c0 -5 5 -7 10 -4 6 3 10 8 10 11 0 2 -4 4 -10 4 -5 0
-10 -5 -10 -11z"/>
<path d="M5277 10364 c-11 -11 3 -24 18 -18 8 4 12 10 9 15 -6 11 -18 12 -27
3z"/>
<path d="M5485 10350 c-3 -5 1 -10 9 -10 9 0 16 5 16 10 0 6 -4 10 -9 10 -6 0
-13 -4 -16 -10z"/>
<path d="M5383 10294 c-44 -19 -42 -24 5 -13 20 5 40 9 45 9 4 0 7 5 7 10 0
13 -18 11 -57 -6z"/>
<path d="M5240 10290 c0 -5 7 -10 15 -10 8 0 15 5 15 10 0 6 -7 10 -15 10 -8
0 -15 -4 -15 -10z"/>
<path d="M5450 10279 c0 -24 23 -21 28 4 2 10 -3 17 -12 17 -10 0 -16 -9 -16
-21z"/>
<path d="M5506 10284 c-4 -10 -1 -14 6 -12 15 5 23 28 10 28 -5 0 -13 -7 -16
-16z"/>
<path d="M5178 10276 c-9 -9 -21 -15 -25 -14 -4 2 -21 -10 -36 -26 l-29 -29
26 7 c14 3 26 4 26 1 0 -14 -99 -105 -114 -105 -9 0 -16 -4 -16 -9 0 -5 -9
-13 -20 -16 -11 -3 -20 -11 -20 -16 0 -17 37 -9 55 11 19 21 45 27 45 10 0
-14 33 -13 48 2 9 9 12 8 12 -4 0 -8 -7 -21 -15 -28 -23 -19 -18 -27 20 -26
36 1 60 26 25 26 -27 0 -25 17 3 26 42 13 51 49 10 40 -58 -13 -83 -16 -83
-11 0 11 63 43 76 38 7 -2 32 7 57 21 24 14 48 26 54 26 11 0 11 -56 -1 -67
-3 -3 -6 -14 -6 -24 0 -15 -7 -18 -37 -16 -45 2 -57 -24 -24 -54 12 -11 21
-24 21 -28 0 -16 27 -20 52 -7 20 10 26 10 37 -2 10 -10 26 -12 55 -8 74 11
140 28 186 48 42 18 43 19 10 13 -19 -4 -53 -11 -75 -16 -22 -4 -70 -8 -107
-9 -62 0 -68 2 -68 21 0 11 -7 27 -15 35 -8 9 -15 20 -15 25 0 17 41 50 70 56
33 6 36 13 18 31 -10 10 -10 17 0 32 16 25 -3 27 -30 3 -17 -15 -18 -15 -18
12 l0 28 -23 -21 c-25 -23 -67 -21 -67 4 0 8 -9 14 -19 14 -11 0 -21 5 -23 11
-3 8 -10 6 -20 -5z m16 -48 c-5 -7 -9 -15 -9 -18 -1 -14 -24 -44 -30 -39 -7 8
15 61 30 71 13 10 19 2 9 -14z m46 -2 c0 -2 -8 -10 -17 -17 -16 -13 -17 -12
-4 4 13 16 21 21 21 13z m35 -168 c7 -7 2 -9 -15 -4 -14 3 -31 6 -38 6 -7 0
-10 5 -7 10 7 12 44 4 60 -12z"/>
<path d="M5660 10281 c0 -5 5 -13 10 -16 6 -3 10 -2 10 4 0 5 -4 13 -10 16 -5
3 -10 2 -10 -4z"/>
<path d="M5407 10254 c-9 -10 2 -24 18 -24 9 0 12 6 9 15 -6 16 -17 19 -27 9z"/>
<path d="M5546 10244 c-9 -22 -8 -24 9 -24 8 0 15 6 15 14 0 22 -17 28 -24 10z"/>
<path d="M5490 10234 c0 -8 5 -12 10 -9 6 4 8 11 5 16 -9 14 -15 11 -15 -7z"/>
<path d="M5426 10205 c-11 -8 -17 -18 -13 -21 10 -11 37 4 37 21 0 18 0 18
-24 0z"/>
<path d="M4540 10159 c0 -22 4 -38 8 -35 12 7 14 76 2 76 -5 0 -10 -18 -10
-41z"/>
<path d="M4480 10151 c0 -5 -3 -18 -6 -28 -6 -16 -5 -16 9 2 19 23 21 35 7 35
-5 0 -10 -4 -10 -9z"/>
<path d="M5223 10152 c-7 -5 -9 -13 -4 -21 7 -11 12 -11 30 1 30 21 5 40 -26
20z"/>
<path d="M5025 10140 c-3 -5 -1 -10 4 -10 6 0 11 5 11 10 0 6 -2 10 -4 10 -3
0 -8 -4 -11 -10z"/>
<path d="M5922 10110 c-17 -28 -15 -32 8 -20 11 6 20 17 20 25 0 21 -13 19
-28 -5z"/>
<path d="M5980 10111 c-7 -15 -7 -21 0 -21 12 0 25 28 17 36 -3 3 -10 -4 -17
-15z"/>
<path d="M5778 10073 c7 -3 16 -2 19 1 4 3 -2 6 -13 5 -11 0 -14 -3 -6 -6z"/>
<path d="M4657 10063 c-11 -10 -8 -43 3 -43 6 0 10 11 10 25 0 26 -2 29 -13
18z"/>
<path d="M4576 10041 c-4 -7 -5 -15 -2 -18 9 -9 19 4 14 18 -4 11 -6 11 -12 0z"/>
<path d="M4975 10030 c-19 -8 -19 -9 3 -9 12 -1 22 4 22 9 0 6 -1 10 -2 9 -2
0 -12 -4 -23 -9z"/>
<path d="M4526 10015 c-21 -21 -20 -31 1 -39 10 -4 14 -4 10 0 -4 4 1 13 11
20 12 9 14 16 6 24 -8 8 -15 7 -28 -5z"/>
<path d="M5021 10016 c-19 -7 -37 -18 -39 -24 -5 -15 44 -16 53 -2 11 18 38
11 33 -8 -4 -13 1 -18 18 -20 30 -2 39 14 23 44 -14 27 -36 29 -88 10z"/>
<path d="M5120 10012 c0 -2 7 -11 16 -19 9 -9 14 -26 11 -40 -2 -12 0 -23 5
-23 14 0 59 52 55 64 -3 10 -87 28 -87 18z"/>
<path d="M5440 9990 c0 -5 5 -10 11 -10 5 0 7 5 4 10 -3 6 -8 10 -11 10 -2 0
-4 -4 -4 -10z"/>
<path d="M4625 9970 c-3 -5 -3 -15 1 -21 6 -11 23 6 24 24 0 10 -18 9 -25 -3z"/>
<path d="M4580 9940 c0 -5 5 -10 10 -10 6 0 10 5 10 10 0 6 -4 10 -10 10 -5 0
-10 -4 -10 -10z"/>
<path d="M4640 9911 c-13 -25 -13 -71 0 -71 6 0 13 0 18 0 4 0 8 20 8 45 2 48
-8 58 -26 26z"/>
<path d="M4705 9910 c-3 -5 -1 -10 4 -10 6 0 11 -10 12 -22 0 -22 1 -22 8 -3
13 33 -7 62 -24 35z"/>
<path d="M4460 9901 c0 -6 5 -13 10 -16 6 -3 10 1 10 9 0 9 -4 16 -10 16 -5 0
-10 -4 -10 -9z"/>
<path d="M4822 9842 c-14 -19 -18 -33 -12 -37 10 -6 11 -5 14 15 0 6 7 15 15
19 7 5 12 14 9 22 -3 8 -12 1 -26 -19z"/>
<path d="M5091 9856 c-8 -9 -11 -19 -7 -23 9 -9 29 13 24 27 -2 8 -8 7 -17 -4z"/>
<path d="M5181 9863 c0 -5 4 -17 9 -28 8 -18 9 -17 9 8 1 15 -3 27 -9 27 -5 0
-10 -3 -9 -7z"/>
<path d="M5046 9794 c-9 -24 -7 -27 9 -10 17 17 19 26 6 26 -5 0 -12 -7 -15
-16z"/>
<path d="M5094 9786 c-10 -14 -22 -22 -28 -19 -5 4 -7 -1 -3 -10 3 -10 3 -17
-2 -17 -4 0 -13 -10 -19 -22 -10 -21 -11 -21 -11 -3 -1 18 -2 18 -17 3 -23
-23 -10 -58 22 -58 16 0 23 -4 18 -11 -3 -6 8 -3 26 6 18 9 41 15 51 12 27 -7
32 7 9 28 -19 17 -25 71 -8 81 13 8 9 34 -6 34 -7 0 -21 -11 -32 -24z m-4 -70
c0 -3 -4 -8 -10 -11 -5 -3 -10 -1 -10 4 0 6 5 11 10 11 6 0 10 -2 10 -4z m-13
-52 c-9 -9 -28 6 -21 18 4 6 10 6 17 -1 6 -6 8 -13 4 -17z"/>
<path d="M5690 9750 c0 -5 5 -10 10 -10 6 0 10 5 10 10 0 6 -4 10 -10 10 -5 0
-10 -4 -10 -10z"/>
<path d="M4770 9731 c-12 -23 -13 -61 -2 -60 4 0 18 14 31 31 20 24 22 31 10
39 -21 13 -27 11 -39 -10z"/>
<path d="M4907 9722 c-25 -28 -20 -33 12 -14 16 9 27 20 25 24 -8 13 -20 9
-37 -10z"/>
<path d="M4845 9677 c-4 -10 -5 -21 -1 -24 10 -10 18 4 13 24 -4 17 -4 17 -12
0z"/>
<path d="M5096 9638 c-27 -15 -18 -27 17 -24 29 3 87 22 87 28 0 8 -89 4 -104
-4z"/>
<path d="M5920 9640 c0 -5 5 -10 10 -10 6 0 10 5 10 10 0 6 -4 10 -10 10 -5 0
-10 -4 -10 -10z"/>
<path d="M4978 9619 c-18 -10 -25 -29 -10 -29 4 0 18 9 32 20 27 21 10 28 -22
9z"/>
<path d="M6075 9620 c3 -5 8 -10 11 -10 2 0 4 5 4 10 0 6 -5 10 -11 10 -5 0
-7 -4 -4 -10z"/>
<path d="M6110 9615 c0 -8 5 -15 10 -15 6 0 10 7 10 15 0 8 -4 15 -10 15 -5 0
-10 -7 -10 -15z"/>
<path d="M6066 9585 c4 -8 8 -15 10 -15 2 0 4 7 4 15 0 8 -4 15 -10 15 -5 0
-7 -7 -4 -15z"/>
<path d="M5245 9580 c-3 -5 -2 -10 4 -10 5 0 13 5 16 10 3 6 2 10 -4 10 -5 0
-13 -4 -16 -10z"/>
<path d="M6210 9576 c0 -2 7 -9 15 -16 12 -10 15 -10 15 4 0 9 -7 16 -15 16
-8 0 -15 -2 -15 -4z"/>
<path d="M5990 9544 c0 -8 5 -12 10 -9 6 3 10 10 10 16 0 5 -4 9 -10 9 -5 0
-10 -7 -10 -16z"/>
<path d="M5324 9539 c-4 -7 -22 -9 -45 -6 -41 5 -54 -7 -19 -18 11 -3 20 -11
20 -16 0 -5 11 -9 25 -9 18 0 28 7 35 26 6 14 10 27 10 30 0 9 -19 4 -26 -7z"/>
<path d="M5956 9531 c-3 -5 1 -14 9 -21 12 -10 15 -10 15 3 0 19 -16 31 -24
18z"/>
<path d="M6187 9506 c-20 -16 -23 -56 -3 -56 8 0 17 14 21 31 8 37 5 41 -18
25z"/>
<path d="M5453 9503 c-10 -3 -10 -8 1 -19 19 -19 23 -18 29 6 5 20 -5 24 -30
13z"/>
<path d="M5973 9480 c-27 -33 -28 -43 -8 -60 8 -7 15 -21 15 -31 0 -10 4 -20
8 -23 4 -2 8 29 9 70 1 41 1 74 0 73 -1 0 -12 -13 -24 -29z"/>
<path d="M5512 9466 c-37 -40 -39 -46 -12 -39 11 3 20 9 20 13 0 4 11 19 25
34 13 14 19 26 12 26 -7 0 -27 -15 -45 -34z"/>
<path d="M6076 9485 c4 -8 10 -12 15 -9 14 8 10 24 -6 24 -9 0 -12 -6 -9 -15z"/>
<path d="M5370 9480 c-8 -5 -11 -12 -8 -16 11 -10 60 5 53 16 -8 12 -26 12
-45 0z"/>
<path d="M5774 9465 c-9 -22 1 -29 15 -11 8 10 9 16 1 21 -5 3 -13 -1 -16 -10z"/>
<path d="M5560 9440 c0 -13 -7 -20 -19 -20 -11 0 -23 -5 -27 -11 -4 -8 4 -9
27 -4 19 4 34 8 34 9 0 0 6 11 13 24 11 20 10 22 -8 22 -13 0 -20 -7 -20 -20z"/>
<path d="M5275 9430 c-3 -5 -1 -10 4 -10 6 0 11 5 11 10 0 6 -2 10 -4 10 -3 0
-8 -4 -11 -10z"/>
<path d="M5816 9411 c-4 -7 -5 -15 -2 -18 9 -9 19 4 14 18 -4 11 -6 11 -12 0z"/>
<path d="M5627 9403 c-12 -11 -8 -23 8 -23 8 0 15 7 15 15 0 16 -12 20 -23 8z"/>
<path d="M5840 9400 c0 -5 5 -10 11 -10 5 0 7 5 4 10 -3 6 -8 10 -11 10 -2 0
-4 -4 -4 -10z"/>
<path d="M5851 9354 c0 -11 3 -14 6 -6 3 7 2 16 -1 19 -3 4 -6 -2 -5 -13z"/>
<path d="M5726 9343 c-6 -14 -5 -15 5 -6 7 7 10 15 7 18 -3 3 -9 -2 -12 -12z"/>
<path d="M7898 8603 c7 -3 16 -2 19 1 4 3 -2 6 -13 5 -11 0 -14 -3 -6 -6z"/>
<path d="M7680 11500 c0 -6 7 -10 15 -10 8 0 15 2 15 4 0 2 -7 6 -15 10 -8 3
-15 1 -15 -4z"/>
<path d="M3676 11248 c3 -24 16 -108 30 -187 13 -79 25 -169 26 -200 l1 -56 6
65 c6 67 -20 269 -39 302 -14 24 -13 88 1 88 8 0 8 5 -1 15 -21 26 -30 17 -24
-27z"/>
<path d="M3950 10562 c20 -10 49 -28 66 -41 21 -15 41 -21 60 -19 26 4 21 8
-48 41 -42 20 -85 37 -95 37 -11 -1 -5 -7 17 -18z"/>
<path d="M7585 9810 c3 -5 8 -10 11 -10 2 0 4 5 4 10 0 6 -5 10 -11 10 -5 0
-7 -4 -4 -10z"/>
<path d="M7710 9729 c0 -5 5 -7 10 -4 6 3 10 8 10 11 0 2 -4 4 -10 4 -5 0 -10
-5 -10 -11z"/>
<path d="M4880 9011 c0 -13 39 -35 48 -27 3 3 0 6 -6 6 -6 0 -18 7 -26 16 -9
8 -16 11 -16 5z"/>
<path d="M8010 8971 c0 -16 12 -41 20 -41 4 0 5 11 2 25 -4 23 -22 36 -22 16z"/>
<path d="M4927 8916 c-3 -8 1 -17 10 -20 20 -8 25 -3 17 18 -8 20 -20 21 -27
2z"/>
<path d="M4880 8849 c0 -10 50 -32 57 -25 2 2 -10 11 -26 19 -17 9 -31 11 -31
6z"/>
<path d="M4989 8846 c10 -12 9 -13 -7 -9 -11 2 -23 0 -26 -6 -4 -6 0 -11 9
-11 9 0 24 -13 33 -30 18 -31 36 -42 26 -15 -13 32 26 13 62 -30 20 -25 48
-48 63 -52 14 -3 33 -11 41 -17 8 -6 6 -1 -4 12 -11 12 -27 22 -36 22 -17 0
-64 56 -52 63 4 2 2 2 -5 1 -7 -2 -29 17 -49 41 -20 25 -43 45 -51 45 -12 0
-13 -3 -4 -14z"/>
<path d="M5040 8841 c0 -5 5 -13 10 -16 6 -3 10 -2 10 4 0 5 -4 13 -10 16 -5
3 -10 2 -10 -4z"/>
<path d="M5285 8830 c3 -5 13 -10 21 -10 8 0 12 5 9 10 -3 6 -13 10 -21 10 -8
0 -12 -4 -9 -10z"/>
<path d="M5403 8823 c-7 -2 -13 -12 -13 -21 1 -15 2 -15 15 2 11 15 22 17 52
13 26 -5 33 -3 23 3 -16 10 -56 12 -77 3z"/>
<path d="M5248 8813 c7 -3 16 -2 19 1 4 3 -2 6 -13 5 -11 0 -14 -3 -6 -6z"/>
<path d="M8170 8770 c20 -13 57 -13 65 0 4 6 -11 10 -37 10 -31 0 -39 -3 -28
-10z"/>
<path d="M5130 8750 c11 -20 30 -28 30 -12 0 11 -22 32 -32 32 -5 0 -4 -9 2
-20z"/>
<path d="M5010 8734 c0 -3 5 -15 11 -26 9 -16 13 -18 20 -7 4 8 3 19 -3 26
-11 13 -28 18 -28 7z"/>
<path d="M5070 8720 c6 -11 15 -20 20 -20 6 0 5 9 -2 20 -7 11 -16 20 -21 20
-4 0 -3 -9 3 -20z"/>
<path d="M5530 8710 c0 -5 5 -10 10 -10 6 0 10 5 10 10 0 6 -4 10 -10 10 -5 0
-10 -4 -10 -10z"/>
<path d="M8180 8705 c0 -10 10 -15 30 -15 17 0 30 4 30 9 0 6 19 12 43 14 28
2 17 4 -30 5 -59 2 -73 -1 -73 -13z"/>
<path d="M6639 8683 c-6 -16 -17 -35 -24 -43 -12 -13 -8 -15 31 -17 32 -1 44
2 44 13 0 8 5 14 11 14 8 0 8 5 -1 15 -7 8 -10 22 -6 30 4 11 -1 15 -20 15
-18 0 -27 -8 -35 -27z m41 -7 c0 -8 -4 -18 -10 -21 -5 -3 -10 3 -10 14 0 12 5
21 10 21 6 0 10 -6 10 -14z"/>
<path d="M5100 8675 c0 -7 6 -15 14 -18 8 -3 16 -16 18 -29 2 -17 11 -24 32
-26 18 -2 26 0 21 7 -3 6 -15 11 -26 11 -10 0 -19 7 -19 15 0 18 31 20 49 3
11 -11 13 -10 9 1 -6 19 -98 53 -98 36z"/>
<path d="M5080 8646 c0 -8 4 -17 9 -20 5 -4 7 3 4 14 -6 23 -13 26 -13 6z"/>
<path d="M5294 8648 c10 -7 31 -23 47 -36 l28 -23 -15 31 c-9 16 -22 30 -29
30 -7 0 -22 2 -32 5 -17 6 -17 5 1 -7z"/>
<path d="M6445 8650 c-3 -5 -1 -10 4 -10 6 0 11 5 11 10 0 6 -2 10 -4 10 -3 0
-8 -4 -11 -10z"/>
<path d="M8505 8650 c-3 -5 1 -10 10 -10 9 0 13 5 10 10 -3 6 -8 10 -10 10 -2
0 -7 -4 -10 -10z"/>
<path d="M6720 8632 c0 -10 -5 -23 -12 -30 -9 -9 -7 -13 5 -18 24 -9 39 4 27
25 -6 12 -5 22 2 29 9 9 8 12 -5 12 -10 0 -17 -8 -17 -18z"/>
<path d="M6765 8630 c-3 -5 1 -10 9 -10 9 0 16 5 16 10 0 6 -4 10 -9 10 -6 0
-13 -4 -16 -10z"/>
<path d="M5675 8620 c-3 -5 3 -10 15 -10 12 0 18 5 15 10 -3 6 -10 10 -15 10
-5 0 -12 -4 -15 -10z"/>
<path d="M6560 8616 c0 -15 18 -31 26 -23 7 7 -7 37 -17 37 -5 0 -9 -6 -9 -14z"/>
<path d="M5105 8611 c-3 -5 -1 -12 5 -16 5 -3 10 1 10 9 0 18 -6 21 -15 7z"/>
<path d="M6666 8595 c-3 -8 -1 -15 4 -15 6 0 10 7 10 15 0 8 -2 15 -4 15 -2 0
-6 -7 -10 -15z"/>
<path d="M8555 8573 c-13 -45 -14 -53 -7 -57 4 -2 13 2 19 10 8 8 9 15 3 19
-16 10 -12 23 10 30 25 8 26 25 1 25 -12 0 -22 -10 -26 -27z"/>
<path d="M5240 8582 c0 -10 33 -22 60 -22 13 1 13 2 0 9 -27 16 -60 22 -60 13z"/>
<path d="M5355 8556 c11 -7 31 -16 45 -20 19 -5 16 -2 -10 13 -40 23 -65 28
-35 7z"/>
<path d="M5190 8540 c0 -5 5 -10 11 -10 5 0 7 5 4 10 -3 6 -8 10 -11 10 -2 0
-4 -4 -4 -10z"/>
<path d="M5250 8525 c14 -17 50 -20 50 -4 0 6 -7 9 -15 6 -8 -4 -17 -2 -20 3
-4 6 -11 10 -17 10 -7 0 -6 -6 2 -15z"/>
<path d="M8506 8533 c-11 -11 -6 -23 9 -23 8 0 15 4 15 9 0 13 -16 22 -24 14z"/>
<path d="M6453 8514 c-3 -8 -1 -20 6 -27 8 -8 11 -4 11 16 0 30 -7 35 -17 11z"/>
<path d="M6630 8521 c0 -6 5 -13 10 -16 6 -3 10 1 10 9 0 9 -4 16 -10 16 -5 0
-10 -4 -10 -9z"/>
<path d="M5550 8516 c0 -2 9 -6 20 -9 11 -3 18 -1 14 4 -5 9 -34 13 -34 5z"/>
<path d="M6410 8495 c1 -26 2 -28 11 -12 8 14 8 22 0 30 -8 8 -11 3 -11 -18z"/>
<path d="M6391 8503 c0 -6 -4 -20 -7 -30 -5 -14 -4 -15 5 -7 7 7 11 20 8 30
-3 11 -5 14 -6 7z"/>
<path d="M6600 8500 c0 -5 5 -10 11 -10 5 0 7 5 4 10 -3 6 -8 10 -11 10 -2 0
-4 -4 -4 -10z"/>
<path d="M5200 8480 c0 -5 5 -10 11 -10 5 0 7 5 4 10 -3 6 -8 10 -11 10 -2 0
-4 -4 -4 -10z"/>
<path d="M5605 8480 c-18 -8 -17 -9 8 -9 16 -1 26 3 22 9 -3 6 -7 10 -8 9 -1
0 -11 -4 -22 -9z"/>
<path d="M6415 8447 c-4 -10 -5 -21 -1 -24 10 -10 18 4 13 24 -4 17 -4 17 -12
0z"/>
<path d="M6440 8439 c0 -11 5 -17 10 -14 6 3 10 13 10 21 0 8 -4 14 -10 14 -5
0 -10 -9 -10 -21z"/>
<path d="M5565 8440 c3 -5 11 -10 16 -10 6 0 7 5 4 10 -3 6 -11 10 -16 10 -6
0 -7 -4 -4 -10z"/>
<path d="M6356 8443 c-11 -12 -6 -19 14 -19 11 0 20 3 20 7 0 10 -27 19 -34
12z"/>
<path d="M5528 8403 c6 -2 18 -2 25 0 6 3 1 5 -13 5 -14 0 -19 -2 -12 -5z"/>
<path d="M5628 8403 c-16 -2 -28 -11 -28 -19 0 -17 16 -19 26 -3 3 6 19 9 35
7 18 -3 28 0 26 6 -4 13 -20 15 -59 9z"/>
<path d="M5670 8360 c0 -5 7 -10 16 -10 8 0 12 5 9 10 -3 6 -10 10 -16 10 -5
0 -9 -4 -9 -10z"/>
<path d="M6195 8360 c-3 -5 -1 -10 4 -10 6 0 11 5 11 10 0 6 -2 10 -4 10 -3 0
-8 -4 -11 -10z"/>
<path d="M5660 8330 c0 -5 7 -10 16 -10 8 0 12 5 9 10 -3 6 -10 10 -16 10 -5
0 -9 -4 -9 -10z"/>
<path d="M5720 8320 c0 -5 5 -10 11 -10 5 0 7 5 4 10 -3 6 -8 10 -11 10 -2 0
-4 -4 -4 -10z"/>
<path d="M9070 8303 c19 -3 41 -10 49 -16 11 -10 13 -9 9 3 -3 10 -19 15 -49
16 -35 1 -37 1 -9 -3z"/>
<path d="M9018 8283 c7 -3 16 -2 19 1 4 3 -2 6 -13 5 -11 0 -14 -3 -6 -6z"/>
<path d="M5920 8269 c0 -5 5 -7 10 -4 6 3 10 8 10 11 0 2 -4 4 -10 4 -5 0 -10
-5 -10 -11z"/>
<path d="M9200 8260 c0 -19 3 -21 12 -12 9 9 9 15 0 24 -9 9 -12 7 -12 -12z"/>
<path d="M5785 8260 c3 -5 8 -10 11 -10 2 0 4 5 4 10 0 6 -5 10 -11 10 -5 0
-7 -4 -4 -10z"/>
<path d="M6750 8259 c0 -5 5 -7 10 -4 6 3 10 8 10 11 0 2 -4 4 -10 4 -5 0 -10
-5 -10 -11z"/>
<path d="M8866 8241 c-12 -13 -14 -21 -6 -26 5 -3 8 -10 5 -15 -3 -5 -1 -11 5
-15 5 -3 10 -15 10 -27 0 -18 2 -19 17 -7 11 10 49 14 129 14 62 1 116 4 120
8 7 6 -148 11 -225 7 -34 -2 -34 -1 -28 34 7 42 -4 53 -27 27z"/>
<path d="M8940 8240 c-13 -8 -12 -10 3 -10 9 0 17 5 17 10 0 12 -1 12 -20 0z"/>
<path d="M8970 8240 c0 -6 42 -10 102 -10 56 0 99 2 97 5 -10 10 -199 14 -199
5z"/>
<path d="M9200 8190 c0 -5 5 -10 10 -10 6 0 10 5 10 10 0 6 -4 10 -10 10 -5 0
-10 -4 -10 -10z"/>
<path d="M5945 8140 c-3 -5 -2 -10 4 -10 5 0 13 5 16 10 3 6 2 10 -4 10 -5 0
-13 -4 -16 -10z"/>
<path d="M9210 8120 c-8 -5 -60 -10 -115 -10 -68 0 -95 -3 -85 -10 19 -12 219
-10 227 3 9 15 -11 27 -27 17z"/>
<path d="M9280 8120 c0 -5 9 -10 20 -10 11 0 20 5 20 10 0 6 -9 10 -20 10 -11
0 -20 -4 -20 -10z"/>
<path d="M6680 8093 c0 -12 -3 -28 -6 -37 -3 -9 -2 -16 4 -16 13 0 23 53 11
65 -5 5 -9 1 -9 -12z"/>
<path d="M9165 8050 c-15 -6 -11 -7 18 -7 20 1 37 5 37 9 0 10 -29 9 -55 -2z"/>
<path d="M9235 8050 c3 -5 24 -10 46 -10 21 0 39 5 39 10 0 6 -21 10 -46 10
-27 0 -43 -4 -39 -10z"/>
<path d="M6700 8016 c0 -9 5 -16 10 -16 6 0 10 4 10 9 0 6 -4 13 -10 16 -5 3
-10 -1 -10 -9z"/>
<path d="M6660 8006 c0 -9 5 -16 10 -16 6 0 10 4 10 9 0 6 -4 13 -10 16 -5 3
-10 -1 -10 -9z"/>
<path d="M9612 7985 c1 -14 6 -25 10 -25 4 0 8 11 8 25 0 14 -4 25 -10 25 -5
0 -9 -11 -8 -25z"/>
<path d="M9316 7985 c-3 -9 0 -15 9 -15 8 0 15 7 15 15 0 8 -4 15 -9 15 -5 0
-11 -7 -15 -15z"/>
<path d="M6641 7965 c-1 -19 16 -45 29 -45 3 0 6 15 7 33 2 28 1 30 -9 12 -11
-19 -11 -19 -19 0 -7 19 -8 19 -8 0z"/>
<path d="M9648 7973 c7 -3 16 -2 19 1 4 3 -2 6 -13 5 -11 0 -14 -3 -6 -6z"/>
<path d="M6586 7943 c-9 -9 13 -43 28 -43 8 0 17 -7 20 -16 4 -9 9 -15 11 -12
3 3 -2 19 -10 35 -15 31 -38 47 -49 36z"/>
<path d="M9610 7930 c0 -5 5 -10 10 -10 6 0 10 5 10 10 0 6 -4 10 -10 10 -5 0
-10 -4 -10 -10z"/>
<path d="M6576 7858 c-18 -36 -20 -58 -6 -58 6 0 10 4 10 9 0 21 35 21 53 0 9
-12 21 -19 24 -15 4 4 2 11 -5 15 -10 6 -10 11 3 21 8 7 15 19 15 27 0 13 -3
13 -15 3 -8 -7 -15 -19 -15 -27 0 -12 -2 -12 -15 1 -8 8 -15 24 -15 35 0 31
-16 26 -34 -11z"/>
<path d="M10687 7493 c-4 -3 -7 -12 -7 -20 0 -15 26 -18 34 -4 7 11 -18 33
-27 24z"/>
<path d="M10688 7390 c2 -16 8 -30 13 -30 10 0 11 7 3 38 -9 33 -21 27 -16 -8z"/>
<path d="M10838 7373 c7 -3 16 -2 19 1 4 3 -2 6 -13 5 -11 0 -14 -3 -6 -6z"/>
<path d="M11040 7371 c0 -5 7 -12 16 -15 22 -9 24 -8 24 9 0 8 -9 15 -20 15
-11 0 -20 -4 -20 -9z"/>
<path d="M10687 7104 c-9 -10 2 -24 19 -24 8 0 14 7 14 15 0 15 -21 21 -33 9z"/>
<path d="M10695 6990 c5 -19 8 -40 8 -47 0 -7 4 -10 8 -8 8 5 -5 73 -16 83 -4
4 -4 -9 0 -28z"/>
<path d="M10788 6973 c-10 -2 -18 -8 -18 -13 0 -8 13 -8 65 -1 6 1 3 6 -5 11
-8 5 -17 9 -20 9 -3 -1 -13 -3 -22 -6z"/>
<path d="M10808 6863 c-21 -2 -38 -9 -38 -15 0 -5 7 -7 16 -4 9 3 33 6 55 6
21 0 39 5 39 10 0 6 -8 9 -17 8 -10 -1 -35 -3 -55 -5z"/>
<path d="M10745 6850 c3 -5 8 -10 11 -10 2 0 4 5 4 10 0 6 -5 10 -11 10 -5 0
-7 -4 -4 -10z"/>
<path d="M11058 6853 c7 -3 16 -2 19 1 4 3 -2 6 -13 5 -11 0 -14 -3 -6 -6z"/>
<path d="M11036 6635 c-3 -9 -6 -18 -6 -19 0 -1 14 -1 30 2 34 5 36 25 3 30
-12 2 -23 -4 -27 -13z"/>
<path d="M11176 6585 c-4 -20 -4 -40 -1 -45 9 -15 -30 -20 -169 -23 -75 -1
-131 -6 -133 -12 -2 -6 28 -9 82 -7 59 2 85 0 85 -8 0 -6 4 -9 8 -6 5 3 44 8
88 12 82 7 111 17 76 28 -17 6 -19 13 -14 51 6 54 -13 62 -22 10z"/>
<path d="M11261 6521 c-10 -6 -10 -10 -1 -16 13 -8 24 -1 19 14 -3 6 -10 7
-18 2z"/>
<path d="M11448 6163 c7 -3 16 -2 19 1 4 3 -2 6 -13 5 -11 0 -14 -3 -6 -6z"/>
<path d="M11395 5990 c-3 -5 -1 -10 4 -10 6 0 11 5 11 10 0 6 -2 10 -4 10 -3
0 -8 -4 -11 -10z"/>
<path d="M11096 5952 c4 -19 0 -34 -10 -45 -21 -21 -20 -39 4 -70 11 -14 20
-29 20 -34 0 -4 -5 -1 -10 7 -8 13 -10 12 -10 -2 0 -10 -4 -18 -10 -18 -5 0
-10 -8 -10 -17 0 -15 10 -18 62 -18 61 0 63 -1 66 -27 4 -30 2 -30 -68 -32
-34 -1 -35 -2 -38 -44 -2 -33 0 -42 9 -36 7 4 32 9 56 11 36 3 43 1 45 -14 3
-36 -3 -58 -17 -66 -8 -4 -15 -14 -15 -22 0 -20 49 -31 73 -16 16 10 21 10 28
-1 5 -8 9 -8 9 -2 0 6 14 14 32 18 l31 6 -22 24 c-17 18 -19 25 -9 28 7 3 -2
8 -20 12 -33 8 -53 31 -45 54 3 7 23 12 49 12 24 0 44 4 44 9 0 16 -27 31 -44
25 -9 -3 -16 -1 -16 5 0 6 -6 8 -14 5 -15 -6 -32 29 -27 54 1 8 -3 20 -10 28
-6 8 -8 15 -3 15 30 6 174 3 174 -3 0 -14 -25 -21 -72 -19 -28 1 -48 -2 -48
-9 0 -5 21 -10 48 -10 26 0 56 -3 67 -5 37 -10 44 5 31 63 l-11 52 -28 -27
c-15 -15 -27 -22 -27 -15 0 7 -15 12 -40 12 -23 0 -40 -5 -40 -11 0 -7 -11 -9
-32 -5 -18 4 -49 8 -68 11 -19 2 -38 4 -41 4 -16 2 -18 35 -4 61 13 25 13 30
0 44 -8 8 -15 19 -15 25 0 6 -7 11 -15 11 -11 0 -13 -7 -9 -28z m79 -283 c10
-14 1 -21 -19 -13 -9 3 -13 10 -10 15 7 12 21 11 29 -2z m-62 -14 c-3 -9 -8
-14 -10 -11 -3 3 -2 9 2 15 9 16 15 13 8 -4z"/>
<path d="M11406 5924 c-8 -21 -8 -21 7 -27 10 -4 13 2 9 19 -5 28 -8 30 -16 8z"/>
<path d="M11420 5670 c0 -5 5 -10 10 -10 6 0 10 5 10 10 0 6 -4 10 -10 10 -5
0 -10 -4 -10 -10z"/>
<path d="M11407 5574 c-13 -13 5 -24 36 -23 18 1 24 3 15 6 -10 2 -18 9 -18
14 0 10 -23 12 -33 3z"/>
<path d="M11150 5446 c0 -14 5 -28 10 -31 6 -4 10 7 10 24 0 17 -4 31 -10 31
-5 0 -10 -11 -10 -24z"/>
<path d="M11180 5441 c0 -17 4 -18 35 -9 40 13 37 28 -6 28 -22 0 -29 -5 -29
-19z"/>
<path d="M11305 5450 c-3 -5 3 -10 15 -10 12 0 18 5 15 10 -3 6 -10 10 -15 10
-5 0 -12 -4 -15 -10z"/>
<path d="M11405 5430 c-3 -5 3 -10 15 -10 12 0 18 5 15 10 -3 6 -10 10 -15 10
-5 0 -12 -4 -15 -10z"/>
<path d="M11461 4354 c0 -11 3 -14 6 -6 3 7 2 16 -1 19 -3 4 -6 -2 -5 -13z"/>
<path d="M11230 3640 c0 -18 3 -19 21 -9 12 6 43 9 69 7 35 -2 46 0 43 10 -3
8 -27 12 -69 12 -58 0 -64 -2 -64 -20z"/>
<path d="M11448 3653 c7 -3 16 -2 19 1 4 3 -2 6 -13 5 -11 0 -14 -3 -6 -6z"/>
<path d="M11308 3573 c-16 -2 -28 -9 -28 -15 0 -5 7 -7 16 -4 9 3 51 6 95 6
46 0 79 4 79 10 0 10 -105 12 -162 3z"/>
<path d="M11240 3452 c0 -5 42 -13 93 -16 50 -4 102 -10 115 -13 16 -4 22 -1
22 11 0 13 -12 16 -67 17 -38 0 -89 2 -115 5 -27 2 -48 1 -48 -4z"/>
<path d="M11430 3400 c-12 -8 -9 -10 13 -10 15 0 27 5 27 10 0 13 -20 13 -40
0z"/>
<path d="M11353 3354 c1 -19 5 -20 37 -13 19 4 45 6 58 2 13 -3 22 -1 22 7 0
8 -17 11 -55 8 -31 -1 -57 1 -59 7 -2 6 -4 1 -3 -11z"/>
<path d="M11455 3320 c-3 -5 -1 -10 4 -10 6 0 11 5 11 10 0 6 -2 10 -4 10 -3
0 -8 -4 -11 -10z"/>
<path d="M11360 3309 c0 -5 5 -7 10 -4 6 3 10 8 10 11 0 2 -4 4 -10 4 -5 0
-10 -5 -10 -11z"/>
<path d="M11394 3081 c-17 -4 -38 -7 -46 -5 -10 1 -15 -3 -12 -11 9 -22 35
-26 60 -10 13 8 35 15 49 15 14 0 25 5 25 10 0 11 -30 12 -76 1z"/>
<path d="M11362 2998 c6 -18 108 -19 108 -1 0 9 -16 13 -56 13 -40 0 -54 -4
-52 -12z"/>
<path d="M11360 2935 c0 -8 7 -15 15 -15 8 0 15 7 15 15 0 8 -7 15 -15 15 -8
0 -15 -7 -15 -15z"/>
<path d="M11445 2920 c3 -5 10 -10 16 -10 5 0 9 5 9 10 0 6 -7 10 -16 10 -8 0
-12 -4 -9 -10z"/>
<path d="M11380 2881 c0 -5 7 -12 16 -15 24 -9 28 -7 14 9 -14 17 -30 20 -30
6z"/>
<path d="M11433 2775 c2 -20 37 -35 37 -16 0 6 -6 11 -14 11 -8 0 -17 6 -20
13 -3 6 -5 3 -3 -8z"/>
<path d="M11410 2721 c0 -15 15 -21 38 -14 32 8 27 23 -8 23 -16 0 -30 -4 -30
-9z"/>
<path d="M11440 2690 c0 -6 -5 -8 -11 -4 -7 4 -9 -2 -7 -17 2 -16 11 -25 26
-27 20 -3 23 0 20 24 -3 26 -28 48 -28 24z"/>
<path d="M11432 2598 c5 -34 38 -37 38 -4 0 20 -5 26 -21 26 -15 0 -20 -5 -17
-22z"/>
<path d="M11455 2531 c-3 -5 -1 -12 5 -16 5 -3 10 1 10 9 0 18 -6 21 -15 7z"/>
<path d="M5949 193 c-57 -8 -148 -116 -149 -175 0 -28 29 -21 41 10 14 36 44
67 95 97 53 31 98 32 141 3 30 -21 33 -27 33 -75 l0 -53 43 0 c27 0 37 3 28 9
-9 6 -11 18 -6 39 5 27 1 37 -35 76 -50 54 -119 79 -191 69z"/>
<path d="M5947 33 c-17 -16 -5 -33 23 -33 32 0 37 9 18 28 -13 13 -31 16 -41
5z"/>
<path d="M6043 33 c-24 -9 -14 -33 13 -33 18 0 25 5 22 17 -3 18 -16 24 -35
16z"/>
</g>
</svg>
